<svg xmlns="http://www.w3.org/2000/svg" viewBox="0 0 595.3 652.2">
<defs><radialGradient id="bg" cx="50%" cy="50%" r="60%"><stop offset="0%" stop-color="#018EF0" stop-opacity="0.12"/><stop offset="70%" stop-color="#02E5FA" stop-opacity="0.06"/><stop offset="100%" stop-color="#0353BB" stop-opacity="0"/></radialGradient></defs>
<circle cx="297.6" cy="326.1" r="300" fill="url(#bg)"/>
<path fill="#0090F0" d="M62.6,201.9c9.5,2.2,19.9,3.7,29.2,5.3c3.6,0.6,3.3,1.5,4.4,4.4c0.5,1.3,0,3.1-0.1,4.5c-0.2,2-0.9,3.2-2.9,3.8
		c-2,0.6-3.9,0.1-6-0.1c-2-0.2-4.1-0.7-6.2-0.8c-1-0.1-2-0.2-3-0.3c1.1,1.3,2.3,2.5,3.4,3.7c2.9,3.3,5.2,7,8,10.3
		c5.2,6.1,10.8,11.6,16.7,17c2.3,2.2,4.8,3.9,7.6,5.8c2.8,1.9,6.3,3.7,9.1,5.6c1.4,1,1.7,2.2,1.8,3.9c0,0.1,0.1,0.5,0,0.6
		c-2.1,2-1.9,3.7-5.4,2.1c-5.8-2.6-12.5-5.3-18-9.3c-14.8-10.9-27.9-23.7-40.5-37.1c-0.2-0.2-0.4-0.5-0.6-0.6
		C61,214.3,61.7,208.1,62.6,201.9z M275.4,336.3c-1.7,1.7-3.1,4-4.5,5.8c-2.5,3.2-5.1,5.4-8.5,7.5c-2.1,1.2-4.3,2.6-6.3,3.9c-2,1.3-4,1.5-6.4,2
		c-1,0.2-1.9,0.4-3.1,0.6c-1.2,0.2-2.3,0.5-3.8,0.2c-2.8-0.5-5.9-0.9-8.8-1.4c-1.9-0.3-4-0.4-6-0.4c-0.7,0-1.2-0.7-1.5-1.2
		c-1.1-1.9-3.3-3.6-4.8-4.9c-2.1-1.8-2.6-3.2-2.1-5.7c0.7-3.4,2.8-6.5,3.8-9.7c0.5-1.5,0.3-2.3-0.7-3.3c-2.5-2.2-5.2-4-8-5.7
		c-1.3-0.8-2.1-0.5-3.6,0.3c-1.4,0.9-3.7,2.7-5.3,3.4c-1.6,0.7-2.5,0.6-3.7-0.5c-2.2-2.1-3.4-5.1-5-7.5c-1.2-1.7-2.2-2.1-4.1-2.1
		c-2.7,0.1-5.5,1-8.1,0.8c-1.7-0.1-2.2-0.8-2.5-2.4c-0.4-2.4-0.6-4.9-0.5-7.3c0.1-4.1,0.9-8,1.4-12.1c0.2-1.5,0.2-2.8,0.3-4.5
		c0.1-1.6-0.1-3.8,0.5-5.4c0.7-1.6,2-1.8,3.5-2c6.6-1.1,13.2-1.7,19.8-2.9c6.6-1.2,13.2-3,19.8-4.7c0.8-0.2,1.7-0.4,2.5-0.4
		c-0.2,0.7-0.7,1.3-1.2,1.7c-0.5,0.4-1.5,0.7-1.9,1c-3.6,3.3-5,5.9-5.5,10.8c-0.1,1.2-0.1,3.3-0.3,4.7c-0.1,0.8-0.1,1.7,0.6,2.2
		c0.7,0.5,1.4,0,2-0.3c3.2-1.8,6.3-4.3,9.4-6.1c3.1-1.8,6.1-3.8,9.5-4c4.2-0.3,5.3,2.2,6.3,5.6c0.6,1.9,0.2,4.3,2.1,5.4
		c4.7,2.7,9,4.5,14.4,3.2c3.4-0.8,4.1-2.9,4.6-6.5c0.5-3.6,0.3-8.6,0.5-12.6c0.1-1.3,0.4-2.9,1.1-4.1c1.1,0.1,1.5,1.4,1.9,2.2
		c1.3,3.2,2.8,4.5,6,5.8c0.3,0.1,1,0.1,1.4,0.2c2.4,0.6,4.8,0.8,7.4,0.9c4.7,0.1,9.4,0.6,14.1,1.6c2,0.4,4.2,0.5,6.1,1.1
		c1.9,0.6,2.3,1.6,1.4,3.6c-0.6,1.3-1.9,2.6-3,3.9c-10.1,11.9-19.9,24.4-29.1,37.1C276.9,335,276.1,335.6,275.4,336.3z"/>
<path fill="#00B0F0" d="M145.4,310.6c7.7-7.9,15-16,21.9-24.6c0.7-0.9,1.4-1.8,1.1-3.1c-0.3-1.3-2.1-1.3-2.8-2.3c-1.3-2-1.4-3-0.4-5.4
		c1-2.3,2.6-5.1,3.1-7.8c0.2-0.9-0.4-1.3-1.2-1.5c-0.8-0.2-2.1-0.2-2.1-1.4c0-1.2,1.1-1.4,2.1-1.8c2.3-0.8,4.6-1.6,6.7-2.8
		c1.1-0.6,2.5-0.9,3.4-1.7c15.5-12.1,24.2-24.8,34.1-42c3.1-5.4,4.6-12.5,5.5-18.5c0.2-1.6,1.6-3.2,1.6-4.6c0-1.4-0.6-1.9-1.1-3.1
		c1.8-9.7,2.6-19.6,5.5-29c2.1-7,5.2-13.4,9.4-19.4c5.8-8.1,13.1-14.7,20-21.7c0.9-1,2.3-1.5,3.4-2.1c2.7-1.4,5.7-3.2,8.1-4.8
		c2.4-1.5,4.7-3,7.3-3.4c2.6-0.4,3.5,0.6,4.6,2.7c1.1,2.1,0.9,4.7,1.4,7c0.4,1.4,1,2.1,2.1,2.9c1.1,0.8,2,1.6,2.9,2.7
		c0.9,1.1,1.6,2.1,3.1,2.4c4.8,0.8,9.6,0.9,14.5,0.8c4,0,8.1-0.2,12.2,0c0.8,0,1.4,0.7,1.2,1.5c-4.6,0.8-9.3,1.6-14,1.8
		c-8.3,0.3-16.8-0.1-25.1,0.6c-4.9,0.4-9.4,1.8-13.9,3.4c-2.6,0.9-4.7,2.7-6.7,4.3c-1.2,0.9-2.3,2.1-2.8,3.4c-0.7,2-0.6,2.6,1.3,3.8
		c2.8,1.7,6.3,3.1,9.2,5.1c1,0.7,2,1.5,2.8,2.6c0.8,1.1,1.7,2.3,0.8,3.7c-0.9,1.5-2.7,2.1-4.4,2.1c-2.8-2.1-5.9-5.1-9.3-5.8
		c-3.4-0.8-5.6,0-6,3.7c-0.9,11.2,0.7,22.5,2.1,33.6c1-1.7,1.2-3.8,2.1-5.4c4.2-7.4,8.7-14,15-20c2.7-2.6,6.5-4.2,9.8-6.2
		c1-0.6,2.1-0.4,3.1-0.2c-0.3,2.2-1.4,4.5-2.5,6.3c-1,1.7-1.5,3.1-2,4.8c-0.7,2.6-1.7,4.8-2.7,7.2c-2.2,5.2-4,10.6-5.8,15.9
		c-0.4,1.2-0.7,2.4-1.1,3.3c-0.4,1-0.3,1.8-0.3,2.6c-0.1,2.4-0.5,3.3-2.3,5c-0.4,0.3-1,0.6-1.3,1.2c-2.6,5.1-5.8,9.9-9.1,14.6
		c-1.2,1.8-1.7,3.6-2.3,5.7c-0.6,2.1-1.2,4.2-2.3,6.2c-1.6,2.8-3.2,5.6-4.4,8.6c-0.6,1.4-1.3,2.9-2.1,4.3c-0.8,1.4-1.3,3.1-1.7,4.5
		c-0.4,1.4-0.7,2.6-1.3,3.8c-2.9,5.5-5.8,11-8.4,16.6c-0.4,0.9-0.8,1.8-0.2,2.6c0.6,0.9,1.5,0.6,2.3,0.2c8.4-4.2,16.5-8.6,24.3-13.8
		c3.2-2.2,6-5,9.1-7.5c0.7-0.5,1.4-0.8,2.2-0.9c0.1,1.1-0.2,2.2-1.1,3c-7.7,6.4-15.6,12.5-24,17.8c-3.3,2-6.9,3.7-10.5,4.8
		c-12.6,3.7-26,5.5-38.4,8.6c-4.9,1.2-5,2.7-6.5,7.1c-1.1,3.4-1.2,7.9-1.6,11.8c-0.4,3.8,0.1,7.9,0.3,11.7c0.1,1.3,1.1,1.4,2,1.5
		c2.1,0.2,4.5-0.7,6.5-0.6c2.9,0.1,4.2,0.9,6.1,3c1.2,1.3,1.8,3.7,3.2,4.9c2,1.7,3.1,1.9,5.7,1.2c1.3-0.4,2.4-1.9,3.9-2.4
		c1.5-0.6,2.8-1.1,4.5,0s4.6,2.7,6.1,4.2c2.1,2,2.5,3.8,2,6.5c-0.4,2.7-2.4,5.3-2.9,7.8c-0.6,2.5-0.2,3.5,1.3,5.3
		c1.5,1.8,3.6,3.1,5.1,5c0.5,0.6,1.1,1,1.9,1.1c4.7,0.6,9.8,1.6,14.5,1.8c3.8,0.1,7-0.8,10.6-1.2c0.7-0.1,1.1-0.7,1.7-1.1
		c2.4-1.7,4.9-2.9,7.5-4.5c2.6-1.5,4.7-3.5,6.6-6c0.8-1.1,1.5-2.6,2.3-3.7c0.9-1.1,1.6-2.1,3.1-2.2c0.4,0,0.3,0.6,0.1,1
		c-2.8,5.3-5.6,10.6-8.5,15.9c-3.7,7.2-7.4,14.5-11,21.8c-0.4,0.8-1.1,1.3-1.7,1.9c0-2.1,0.3-4.1,0.8-6.2c-3.4,2.4-6.9,4-10.9,5.1
		c-1.1,0.3-2,0.7-3.1,1.3c-1.1,0.7-2.8,1.2-3.9,0.7c-0.5-0.2-0.7-0.1-0.9,0c-2.2,1-3.3,1.2-5.4-0.1c-2.1-1.3-3.5-1.7-6.1-1
		c-0.7,0.2-1.8,0.9-2.8,0.7c-6.1-1.2-11.9-2.3-17.4-5.5c-1.5-0.9-1.6-2.4-1.2-4.2c0.4-1.8,1.5-3.6,2.3-5.5c0.8-1.9,2.3-3.6,2.6-5.9
		c0.3-2.3,0.2-3.6-2-5.2c-1.7-1.2-4.4-2.6-6.3-3.9c-0.9-0.6-1.4-1.8-2.3-2.5c-1.7-1.2-2.7-2.1-4.9-0.8c-2.2,1.3-4.4,3.7-6.4,5.5
		c-1.3,1.1-2.8,1.8-4.4,1.3c-1.6-0.4-1.7-1.7-1.6-3.1c0.1-1.3-0.1-2.4-1.1-3.3c-1.8-1.5-3.4-3.4-4.3-5.3c-0.9-2-1.9-3.8-2.6-5.5
		c-1.1-2.7-0.6-4,0.4-6.4c0.1-0.2,0.4-0.3,0.7-0.5c1.2-0.8,2.4-1.7,3.6-2.5c-2.7,0.6-5.6,2.1-8.4,2.2c-2.7,0.1-3.3-0.8-4.1-3.4
		c-0.5-1.6-0.7-3.7-1-5.6c-0.3-1.9-0.1-4.1,0.3-6.1c0.1-0.3,0.2-0.8,0.2-1.1c-0.2-4.4-0.1-8.8,0.2-13.3c-0.4-0.2-0.9-0.1-1.3,0.2
		c-4.6,4.3-9.3,8.6-14,12.6c-0.8,0.6-1.5,1.1-2.4,1.4C145.8,311.6,145.8,311.1,145.4,310.6z M145.4,310.6c0.7,0.3,1.2,0.3,1.8-0.2c5.3-4.5,10.3-9.2,15.3-14c0.6-0.6,1.3-1.2,2.2-0.7
		c0.9,0.5,0.8,1.4,0.7,2.3c-0.5,3.2-1.1,6.1-1.2,9.4c0,1,0.8,2.1,0.8,3.4c-0.1,4.4,0,9.4,0.5,13.7c0.2,1.5,0.7,1.8,2,1.6
		c3.4-0.5,6.4-1.9,9.7-2.8c0.8-0.2,1.7-0.3,2.5-0.2c-1.3,1.4-3.6,2.8-4.8,4c-2.3,2.2-2.3,3.7-1.3,6.3c0.8,2.1,1.8,4.4,2.6,6.3
		c0.8,1.9,2.3,2.6,3.6,3.9c1.4,1.3,1.9,2.2,1.7,4.2c-0.1,0.8-0.9,1.6,0.3,2.2c1.2,0.6,2.3,0.7,3.4-0.3c2.1-1.7,4.4-4.4,6.5-6
		c2.1-1.5,3.7-1.1,5.9-1.4c0.5-0.1,1.1,0.7,1.1,0.8c0.6,1.7,1.3,3,2.7,3.9c2.5,1.7,5.3,3.1,7.7,4.7c1.4,0.9,1.3,2,1,3.3
		c-0.6,2.6-3,5.6-3.4,7.9c-1.1,5.6-1.4,8.3,3.9,11.5c3.5,2.2,8.9,1.9,13.2,2.1c0.6,0,1.5-0.4,2.1-0.9c0.7-0.6,1.5-1.6,2.7-1.1
		c1.2,0.5,2.5,1.8,3.1,2.8c0.6,1,0.6,1.8,1.8,1.6s1.9-1.3,2.4-2.5c0.1-0.3,0.5-0.8,0.9-0.8c0.4-0.1,0.8,0.3,0.9,0.6
		c0.8,1.5,1.4,1.5,2.9,0.8c0.6-0.3,1.1-0.9,1.7-1.3c0.6-0.4,1.3-0.6,2.2-0.7c2.9-0.2,5.6-0.9,8.2-2.3c0.8-0.4,1-1.3,1.4-2
		c0.4-0.7,0.7-1.4,1.6-1.3c0.9,0.1,0.8,0.7,0.5,1.5c-0.6,1.9-1.2,3.9-1.6,5.9c-0.2,0.8,0.1,1.4-0.3,2.2c-2.2,4.8-4.4,9.6-6.8,14.4
		c-0.2,0.4-0.5,0.9-1.1,1.3c-0.6,0.4-1.3,1.2-2.1,1.5c-7.1,2.5-14.3,4.5-21.7,5.9c-1.1,0.2-2.2,0.3-3.2,0.3
		c-6.1,0.3-12.1,0-18.1-0.9c-1.1-0.2-2.5-0.2-3.4-0.8c-4.5-2.8-6.5-5.4-5.9-10.9c0.4-3.7,3.5-7.8,4.4-11.2c0.9-3.4,1.2-5-1.1-7.7
		c-3.5-4.1-8.4-7.4-12.8-10.5c-1.8-1.2-3.1-0.6-4.5,0.8c-3.1,3.1-5.6,6.8-8.3,10.2c-0.8,1-1.5,2.2-2.6,3.2c-1,0.9-2.3,1.2-3.7,1.2
		c-2.7-3.5-5.4-7-8-10.5c-0.3-0.4-0.5-0.8-0.6-1.2c-0.3-1.3-0.8-2.6-1.1-4c-1.2-4.9-1.7-9.8-1.8-14.9c3.9-4.4,8-8.6,12.3-12.7
		c1.2-1.1,2.4-2.3,3.5-3.5c-1.1-0.2-2.3,0.1-3.3,0.4c-2.9,0.9-6,2.9-8.8,3.3c-4,0.5-5.5-0.3-7.3-3.9c-1.3-2.5-1.4-6.2-2.5-9
		c-0.4-1,0-2.4,0-3.2c0.1-1.5-0.4-2.1-1.9-2.1c-1.4,0.1-2.7,1.1-3.9,1.5c-1.2,0.4-1.8,0.3-2.9-0.1
		C140,314.3,142.7,312.4,145.4,310.6z M160.1,184c-2.9,2.5-6,4.8-9.1,7c-2.2,1.6-4.4,3.2-6.5,4.9c-0.5,0.4-0.9,0.9-1,1.6c-0.6,3.5-1,7-1.5,10.5
		c-0.1,0.9-0.3,1.6-0.8,2.3c-0.5,0.8-1.1,1.2-0.6,2.1c0.5,1,1.5,1.6,2.6,1.7c1.1,0.1,2.3-0.1,3.3,0.2c-6.9,2.3-15.1,5.2-22.1,5.8
		c-5.8,0.5-5.6-1.7-7.2-6.2c-0.3-0.8-0.1-2.4,0.2-3.5c0.5-2.5,0.8-4.4,3.4-5.7c4-2.1,8.7-3.7,13-5.6c1.5-0.7,2.8-1.6,4-2.7
		C145.2,192.4,152.7,188.3,160.1,184z M164.7,264.1c-5,0.6-10.1,1.5-15.1,1c-9.1-1-17.8-2.7-26.4-5.9c-6.3-2.4-12.2-5.7-17.5-9.8
		c-7.7-6-13.7-13.5-20.1-20.8c-2.7-3.2-5.4-6.4-8.4-9.4c-0.4-0.4-1.2-0.8-0.7-1.5c0.5-0.7,1.1-0.2,1.8,0c0.7,0.2,1.5,0.3,2.2,0.5
		c2.2,0.7,4.5,1.5,6.8,1.9c6.2,1,12.5,1.7,18.7,2.6c0.6,0.1,1.2,0,1.7,0.2c4,1.8,7.3,3.5,9.5,7.3c1.8,3.1,2.4,7.3,3.3,10.6
		c0.6,2.1-0.9,4-0.9,5.7c0.1,3.5-0.4,5.2,2.8,7.4c4,2.8,8.8,4.5,13.7,5.9c4.9,1.4,10.6,2.1,15.8,2.8c2.2,0.3,4.6,0.1,6.7-0.2
		c2.1-0.3,3.6-0.7,5.7-1c2-0.3,4.2-0.7,6.3-1.1c1-0.2,2.1-0.2,2.9,0.4c0.8,0.6,0,1-0.6,1.1C170.2,262.5,167.5,263.8,164.7,264.1z M271.5,277.7c1-10.3,2.1-20.6,3.7-30.9c0.3-2,0.9-4,1.4-6c1.1,1.9,0.8,3.8,3.3,4.9c1.7,0.7,3.9,0.2,6,0
		c4.6-0.3,9.3-1.1,14-1.1c4.7,0,9.4,0.3,14.1,1.3c5.5,1.2,11.3,2.6,16.7,4.1c4.5,1.2,8.3,3.3,12.2,5.8c2.2,1.4,4,3.6,6.1,5.2
		c1.2,0.9,2.3,1.1,3.8,1.1c1.5-0.1,3.2-0.5,4.7-0.7c-5.8,3.4-11.6,6.5-17.3,10c-4.6,2.9-9.2,5.8-13.6,9c-5.5,4-10.7,8.5-15.9,12.9
		c-1.5,1.3-3,2.5-4.5,3.6c1-1.4,2.1-2.7,3.1-4.1c0.5-0.8,0.8-1.6,0.4-2.4c-0.4-0.8-1.1-0.3-1.8-0.3c-2.5,0-4.8-0.6-7.2-1.1
		c-4-0.8-7.7-1.2-11.8-1.2c-2.9-0.1-5.7-0.1-8.7-1c-0.7-0.2-2.1,0-3-0.3c-2.7-0.8-3.9-1.9-4.6-4.7
		C272.4,280.5,272.2,278.8,271.5,277.7z M216.8,195.1c-4.3,7.8-7,16.5-13.8,22.6c-9.1,8.1-20.2,11.7-31.2,16.4c0.3-0.9,0.8-1.5,1.4-2.1
		c0.9,0.3,1.7,0,2.3-0.6c7.4-7.5,14.2-15.4,20.9-23.5c2.5-3.1,4.8-6.5,7.9-9.1c1.5-1.3,2.8-0.1,4.2,0.7c2.2,1.2,3.3,1.5,5.3-0.4
		C214.7,198.1,215.7,196.1,216.8,195.1z"/>
<path fill="#00FFC0" d="M407.4,537.5c10.2,6.9,20.7,12.6,28.7,22.8c9.9,12.7,14.9,28.5,19.7,43.9c0.2,0.7,0,1.9-0.1,2.7
		c-0.1,1.8-0.2,4.6-0.3,6.1c-0.1,1.5,0,0.3-0.1,1.4c-0.1,1.1-0.2,2.7-0.5,4c-0.2,1.3-0.3,2.4-0.7,3.8c-0.5,1.4-1.1,2.9-0.7,4.5
		c0,0,0,0,0,0c-1.5,2.4-2.1,4.9-2.5,7.6c-0.1,0.8-0.5,1.5-1.5,1.4c-0.9-0.1-1.1-1-1.2-1.8c-0.4-2,0.3-4.6-0.5-6.4
		c-9.8-22.8-23-39.9-41.6-56.1c-4.4-1.7-8.5-3.9-12.9-5.6c-0.6-0.2-1.4,0-1.8,0.5c-0.4,0.5,0.2,1,0.3,1.5c0.6,1.5,0.8,2.9,0,4.3
		c-0.8,1.4-1.9,2.2-3.1,3.3c-1.2,1.1-2.3,2.7-3.2,4.1c-0.9,1.5-1.7,2.8-3.5,3c-3.9,0.4-7.7,0.3-11.6-0.6
		c-10.2-2.5-20.1-5.7-30.2-8.7c-0.8-0.2-1.6-0.3-2.5-0.7c-6.9-2.6-13.7-4.6-20.4-7.9c-11.1-5.3-22.2-11.7-32.5-18.3
		c-4.4-2.8-8.1-6.5-11.8-9.9c-2.2-2.1-4.1-4.3-6.1-6.3c-2.9-2.9-5.6-6.1-7.8-9.2c-2.2-3-4.1-5.7-6-8.6c-2.9-4.5-5.2-8.8-7.7-13.4
		c-0.3-0.6-0.4-1.2-0.5-1.9c-0.7-2.9-1.5-5.8-2.2-8.7c-0.2-1.1-0.6-2.3-0.1-3.3c1.3-2.4,2.8-2.9,5.5-2.6c0.7,0.1,1.1,0.9,1.7,1.3
		c2.1,1.7,4.2,3,6.9,3.6c2.7,0.6,5.9,0.7,8.6,1.2c1.1,0.2,1.8,0.8,2.6,1.4c3.4,2.9,6.8,4.4,11.1,5.8c4.9,1.6,9,3,13,6.6
		c5.2,4.6,9.5,10.4,15,15.1c7,6,15,11.4,22.9,16.2c0.5,0.3,1.2,0.6,1.8,0.8c3.8,0.8,7.1,0.6,10.8-0.7c0.3-0.1,0.7-0.3,1-0.3
		c-0.9-1.3-1.8-2.2-0.2-3.5c2.2-1.7,5-2,7.7-2.2c0-2.4,0.3-3.6,2.8-4.4c2.5-0.8,4.9-2.2,7.2-3.4c3.5-1.9,5.7-3.3,9.9-1.9
		c4.2,1.4,8.2,3.9,12.3,6.2C391.3,528.8,399.6,532.1,407.4,537.5z M417.1,463.9c-0.5-0.2-1-0.1-1.2-0.5c-1.9-3.5-2.2-5.2-0.8-9.2c0.5-1.4,1.2-3.4,1.6-5.5
		c0.2-1,1.3-3.7,2.7-4.5c0.5-0.3,0.8-1.5,1.3-2c1.9-2,2.9-4.4,6.2-3.9c4.8,0.7,9.2,2.1,13.5,4.8c6.2,4,12.6,8.1,17.8,13.7
		c7,7.5,12.6,15.8,17.5,24.9c3,5.6,4.4,12.1,6.9,18c0.2,2.5,0.9,4.9,1.2,7.4c0.8,7,1.1,14.1,1.4,21.1c0,0.4-0.2,0.7-0.5,0.9
		c-1.1-1.5-1.6-3.5-2.5-5.2c-3.6-7.1-5.8-15.6-11-21.6c-12.7-14.4-27.3-25.2-43.4-35.3C424.5,464.8,420.6,465.2,417.1,463.9z M242.9,568.5c-5.1,8.8-10.4,16-18.9,21.9c-2.3,0.3-5.5,0.2-7.6,0.3c-2,0-3-1.1-3.6-2.3
		c-1.7-3.5-2.2-6.8-3.3-10.3c-0.1-0.2,0-0.4-0.1-0.6c-0.5-1-1.5-1.5-1-2.8c0.5-1.3,1.9-1.6,2.8-2.8c3.6-4.9,3.6-9.2,2.3-15.1
		c0-0.2-0.3-0.5-0.2-0.7c1.1-2.4,1.1-3,4.2-2.4c1.9,0.4,4.7,0.5,6.8-0.5c0.3-0.2,1,0.2,1.4,0.5c2.8,1.8,5.7,2.3,9.1,2.9
		c1.7,0.3,3.7,1.4,4.9,3C241.8,562.3,242.6,565.2,242.9,568.5z"/>
<path fill="#00D0F0" d="M344,90c3.8-0.3,6.7-1.3,9.7-3.3c20.7-14.1,41-28.8,61.6-43c5-3.4,10.1-6.6,15.2-9.8c0.7-0.5,1.4-0.9,2.2-0.7
		c0.8,0.2,0.8,1.1,0.7,1.8c-0.5,2.7-1,5.7-2,8.2c-0.6,1.5-1.2,0.7-1.5-0.2c-0.4-0.9,0.2-2.3,0-3.1c-0.5-1.6-0.6-2.3-2.4-1.3
		c-4.3,2.5-8.7,5.4-13,8.4c-6.1,4.3-12.6,8.7-18.4,13.5c-2,1.7-2.8,3.6-3.1,6.2c-0.3,4,0.3,8.4,0.7,12.4c0.2,2.2,1,4.4,1.6,6.3
		c0.6,2,1.1,3.8,1.4,5.6c0.3,1.8,1.1,3.6,1.2,5.3c0.2,2.9,0.1,4.7-1.9,7c-3,3.4-6.5,6.6-9.9,9.9c-5,4.8-10.3,9.2-15.4,13.9
		c-4.5,4.1-9.1,8.4-13.5,12.6c-3.3,3.2-6.8,6.4-9.8,9.7c-6.5,7.2-13.4,14.3-19,22c-1.9,2.7-1,3.1,1.8,4.3c2.8,1.2,6.8,1.4,10.1,2.3
		c2.2,0.6,4.7,1.8,7,2.9c2.9,1.3,6.1,2.4,9.2,3.4c1,0.3,1.9,0.8,2.9,1.3c2.9,1.5,5.6,2.7,8.7,4.1c3.1,1.4,6.6,3.3,9.6,5.2
		c0.7,0.4,1.5,0.9,2.2,1.3c5.2,2.9,10,6.3,14.6,10.1c0.7,0.6,1.3,1.1,2,1.7c5.6,4.3,11,8.9,16.1,13.6c0.6,0.5,0.8,1.3,1.2,1.9
		c1.2,2.4,2.2,5.2,4.1,7c1.9,1.8,3.3,2.1,5.8,1.8c3.5-0.5,6.8-1.9,10.3-2.7c0.9-0.2,1.7-0.2,2.5,0c-0.4,1.1-1.1,1.9-2.1,2.4
		c-4.1,1.9-8.3,3.7-12.5,5.4c-9.3,3.6-18.5,7-27.9,10.4c-1.3,0.5-2.7,0.8-4.1,0.9c-1.4,0.1-3.3,0.6-4.6,0.5c-4-0.5-6.3-1.3-9.1-4.3
		c-1.9-2-3.5-4.6-5.7-6.5c-1.3-1.2-2.4-2.9-3-4.6c-0.3-0.9-0.9-1.4-1.8-1.8c-2.7-1.4-4.9-2.9-7.2-4.9c-1.2-1-2.7-1.9-4.3-2.3
		c-2.9-0.8-5.9-1.9-8.9-2.8c-4-1.2-8.1-2-12.1-2.9c-0.4-0.1-0.3-0.1-0.7-0.1c-9.5-2.3-19.2-4.1-28.8-5.6c-1.5-0.2-3.2,0.2-4.4-0.4
		c-2.6-1.2-4-2-2.4-5c4-7.3,9.1-14.3,14.1-21.2c5.4-7.5,11.8-14.7,17.2-22.1c1.8-2.5,2.3-5.1,2.6-8.1c0.2-2.3-0.8-4.7-1-6.9
		c-0.1-1.4,0.7-2,1.5-2.9c-1-2.2-2.1-3.2-1.5-5.9c0.5-2.7,1.9-5.8,3.1-8.5c0.3-0.8,0.7-1.9,0.8-2.8c0.5-4,1.3-8.1,1.8-12.1
		c0.1-1-0.3-1.4-0.9-2.1c-1.4-1.4-2.6-2.7-3.7-4.4c-0.5-0.9-1.2-1.5-1.8-2.5c-0.6-0.9-0.8-1.9-0.6-3.2s-0.2-2.5-1.2-3.4
		c-1-0.9-1.5-2.1-1.9-3.2c-0.8-1.9-1.6-3-3.7-3.2c-3.8-0.3-7.7,0.3-11.6,0.4c-1.4,0.1-2.7-0.2-3.9-0.8c0.6-0.7,1.2-1.3,2.1-1.4
		C320.1,91.7,332.2,90.9,344,90z M223.3,160.4c-1.9,10.1-3.7,20.3-5.4,30.5c0.2,1.3,0.3,2.6-0.4,3.8c-1,1.8-2.3,4-3.7,5.3
		c-2,1.9-3.3,1.3-5.6,0.7c-2.3-0.6-3.1-1.6-5.2,0.3c-2.2,1.9-3.9,4.7-5.9,7.1c-6.2,7.8-12.9,15.6-19.9,22.8
		c-0.7,0.7-1.5,1.3-2.4,1.6c-0.9,0.3-1.5-0.1-1.9-0.9c1.9-3.6,4.5-7.9,6.1-11.6c4-9.3,6.5-17.7,8.6-27.5c-1.1,0.2-2.2,0.7-3.2,0.9
		c-1.8,0.4-3.6,1.6-5.5,1.1c-3-0.8-4.3-1.8-4.8-5c-0.5-3.3-0.8-7.3-0.7-10.7c0-2.7,1.1-4.7,3-6.6c3.2-3.3,6.8-6.2,10.1-9.3
		c5.7-5.3,11.6-10.6,17.3-15.9c4.3-4,8.7-7.9,13-11.9c0.5-0.4,1-1,1.5-0.8c1.3,0.5,0.6,1.5,0,2.2c-2.3,2.7-5.5,5-7.5,7.9
		c-2.4,3.5-3.3,6.6-3.2,10.9c0.1,4.2,1.1,8.7,1,13c0,1.1,0.5,2.1,0.7,3.1c0.6,3.3,0.6,6.5-0.1,9.7c-0.1,0.3-0.2,0.3-0.2,0.4
		c-0.1,0.2,0,0.2,0.1,0.2c2-3,4.1-5.8,6.1-8.7c2-3,3.6-6.1,5.2-9.3C220.9,162.2,221.8,161.1,223.3,160.4z M137.3,316.2c2-1,4.2-1.6,6.3-2.5c1.1-0.5,2.1-0.9,3,0.1c0.9,1,0.4,2.1,0.2,3.4c-0.2,1.3-0.1,2.6,0.4,4
		c1.1,2.6,1,5.9,2.2,8.5c1.2,2.6,2.4,3.4,5.4,2.7c3-0.7,6.4-2.5,9.5-3.6c0.7-0.2,1.5-0.7,2.3-0.8c0.8-0.2,1.9-0.4,2.3,0.5
		c0.4,1-0.3,1.6-1,2.3c-3.8,3.4-7.6,6.7-11.3,10.2c-1.4,1.4-2.6,2.9-4.2,4.2c-0.1,0.1-0.2-0.1-0.2-0.3c-0.4-2.4-0.6-4.9-0.8-7.3
		c-0.1-0.7-0.7-0.9-1.3-0.8c-1.8,0.3-3.8,1-5.5,1.6c-1.7,0.6-3.2,1.2-4.8,1.9c-4.4,2-8.5,4.4-13,6.3c-2,0.9-3.8,0.8-5.9,0.5
		c-0.9-3.2-1.3-7.5-2.1-10.5c-1-3.8-2.7-4.7-5.4-6.9c-0.2-0.1-0.6,0-0.6-0.4c0-0.5,0.1-0.8,0.6-1.1c1.8-0.9,3.5-1.7,5.3-2.6
		C125.1,322.6,131.1,319.2,137.3,316.2z M155.4,364.5c-1.5-1.8-2.8-3.7-4.1-5.7c-0.9-1.3-2.1-2.3-3.4-3.1c-1.3-0.8-1.7-1.8-1.8-3.2
		c-0.2-2.7,2.8-5.3,4.3-6.3c1.5-1.1,1.2-0.4,2.4-1.1c0.4,5.5,1.4,10.8,2.5,16.2C155.4,362.4,155.4,363.4,155.4,364.5z M163.1,375.5c-2.2-1.9-4.6-3.5-6.9-5.3c-0.7-0.6-0.8-1.3-0.6-2.2c0.1-0.9,0.2-1.9,0.2-2.9
		c0.8,0.5,1.4,1,2,1.9c1.2,1.8,2.5,3.5,4,5.1C162.6,373.1,163,374.3,163.1,375.5z M446.1,65.3c-1.8-0.5-3.4-1.2-5-2.3C442.8,63.8,444.4,64.5,446.1,65.3z M330.7,115.5c0,0.5-0.2,0.9-0.8,0.8c-0.6-0.1-0.9-0.7-0.9-1.3c0-0.6,0.3-0.9,0.8-0.8
		C330.4,114.3,330.7,114.9,330.7,115.5z M331,121.2c-0.1,0.5-0.6,0.7-1.1,0.6c-0.5-0.1-0.7-0.3-0.6-0.8c0.1-0.5,0.6-0.9,1.1-0.8
		C330.9,120.3,331.1,120.7,331,121.2z"/>
<path fill="#00D0B0" d="M407,536.7c-0.7-0.1-1.4-0.3-2.1-0.6c-7.2-3.7-14.3-7.6-21.5-11.3c-4.5-2.3-8.9-5.1-13.7-6.4
		c-3.4-0.9-5.5,0.6-8.2,2.3c-2.7,1.7-5.2,3-8.5,3.2c-0.7,0-1.7,0.5-1.8,1.3c-0.2,0.8,0.3,1.1,0.8,1.6c0.5,0.5,1.1,0.8,0.6,1.6
		s-1.3,0.7-2.1,0.4c-0.9-0.3-1.2-0.9-2.3-0.4c-1.8,0.8-3.7,1.9-5.3,3.3c-0.2,0.2-0.3,0.8,0.1,0.9c0.4,0.1,0.8,0.2,1.3-0.1
		c0.5-0.3,1.6-0.7,1.7,0.2s-0.8,1.2-1.8,1.3c-0.9,0.1-2.6,1.1-3.1,1.7c-1,1.4-2.5,1.8-3.9,1.5c-3.7-1.1-7.8-2.5-10.9-4.3
		c-6.7-4-13.7-8.9-18.9-14.2c-8.3-8.6-15.9-17.6-22-27.2c-6.2-9.6-9-19.2-13.6-29.4c-0.5-1.1,0.1-2.1,0.2-3.2
		c1.1,0.2,1.7,0.9,2.5,1.5c1.3,0.9,2.1,1.4,3.8,1c6-1.2,12.2-2.4,18.2-3c0.5,0,1,0.1,1.3,0c4-0.8,7.2-2.3,10.5-4.6
		c0.7-0.5,1.3-0.9,2.1-1c0.8-0.1,1.4,0.5,1.7,1.1c1.1,2.3,1.7,4.8,2.5,7.1c0.8,2.3,1.8,4,3.1,6.1c1.3,2,2.6,4.1,4.1,6.1
		c2.4,3.1,4.1,6.6,7,9.5c12.7,12.1,26.5,23.5,41.1,33.1c11.3,7.5,22.9,13,34.5,19.7C405.5,535.6,406.2,536,407,536.7z M333.9,405.5c-0.1-2.7-0.6-5.2-0.6-7.6c0.1-4.5,1.8-8.7,5.1-11.4c3.2-2.7,6.7-4,10.4-5c3.7-1,5,0.4,6.6,3.5
		c1.7,3.1,2.3,7.2,3.9,10.5c0.2,0.5,0.7,0.8,1.2,0.9c3.8,6,8.1,13.2,12.9,18.2c5.8,5.9,11.9,9.8,18.4,14.1c3.1,2.1,6,2.2,9.1,3.8
		c-0.2,0.5-1,1-1.5,0.9c-3.1-0.7-6-1.8-9.1-2.8c-1-0.3-2-0.8-3.1-0.8c-1.1,0-1.8,0.4-2.8,0.9c-1.1,0.6-2.8,1.1-4,1.3
		c-1.2,0.2-2.2,0.4-3,1.3c-2.7,3-5.8,6.5-8.2,9.6c-1.8,2.3-1.5,3.6-1.9,6.1c-0.1,0.6,0.6,1.3-0.2,1.6c-0.8,0.3-1.3,0.2-2.1-0.4
		c-5.2-4.9-10.7-9.5-15.2-15.2c-5.4-6.8-9.7-15.2-13.9-22.5c-1.1-1.9-1.4-4.4-1.8-5.5C333.8,406,333.9,405.7,333.9,405.5z M407.8,464c0.3,0.2,0.6,0.3,1,0.6c1.5,1.1,2.7,0.7,2.6,3.2c-0.1,1.4-0.5,3.3-1.2,5
		c-2.5,5.9-5.3,12.2-7.8,18.2c-0.7,1.7-2.3,3.3-2.4,5.2c0,1.9,0.3,2.6,2.6,2.8c5,0.4,10.7,0.5,15.9,0.9c0.4,0,0.6,0.3,0.6,0.7
		c-8,0.1-16.2,0.4-24.2,0.1c-4.7-0.2-9.1-0.9-13.7-2c-4.6-1.1-9.4-2.5-13.8-4.2c-2.8-1.1-5.1-2.7-7-5c-1.1-1.3-0.8-2.4,0.2-3.8
		c4-5.4,8.6-10.9,12.7-16.3c1.1-1.5,2.3-3.2,3-4.6c1.2-2.3,1-3.6,0.7-6c-0.1-0.6-1.1-1.1-0.3-1.7c0.7-0.6,1.5-0.3,2.4,0
		c5.2,1.9,10.3,3.8,15.7,4.9c3.3,0.7,6.9,0.7,10.3,1.1C406,463.2,406.9,463.4,407.8,464z"/>
<path fill="#00A0A0" d="M319.7,449.4c-2.2-4.1-4.7-8.5-6.5-12.7c-2.8-6.6-5-13.1-7.3-19.8c-0.2-0.6,0-1.2-0.2-1.7
		c-0.7-2.2-1.8-4.5-1.7-6.8c0.1-4.4-0.3-9.4,0.5-13.5c2.9-15.1,7-29.3,13.4-43c3.8-8.1,9.6-14.6,13.9-22.3c1.4-2.4,1.7-4.7,1.9-7.5
		c0.1-1,0.6-2.1,1.4-2.8c-2.7-0.7-5.4-1.2-8.2-1.4c-1.2-0.1-2.4,0-2.8-1.2c-0.4-1.3,0.6-2,1.4-2.9c1.6-1.8,3.1-3.8,4.8-5.5
		c2.8-2.8,5.9-5.5,8.8-8.3c0.3-0.3,0.6-0.7,1-0.9c1.2-0.8,2.6-1.8,3.6-2.8c1-0.9,1.9-2,2.9-2.7c10.2-6.4,20.1-13.2,30.7-18.8
		c12.7-6.8,26-12.5,39.1-18.7c3-1.4,6.3-2.6,9.4-3.9c1.2-0.5,2.4-0.9,3.2,0.3c0.8,1.2-0.5,1.9-1.4,2.6c-0.2,0.2-0.5,0.3-0.8,0.5
		c-1.8,1-3.7,2-5.4,3.1c-11.9,7.8-24.4,15.2-35.8,23.7c-12.1,9-23,19.1-34.3,28.9c-1.3,1.1-2.7,2.2-3.8,3.5
		c-1.6,1.7-2.8,3.5-3.7,5.6c-1.3,3.3-3.5,6.3-4.5,9.7c-4.5,15.5-8.4,29.7-9.2,46.1c-0.4,8.8,2.6,19.2,4.1,28.2c0,0.3,0.3,0.8,0.3,1
		c-1.2,5.4-3.6,9.3-7.8,12.9c-2.4,2-4.6,3.8-6.6,6.2c-1,1.3-2.2,2.3-3.5,3.3c-0.1,0.1-0.3,0.1-0.5,0c-1.7-1.3-3.3-2.6-4.9-4
		c0.7,1.9,1.2,3.8,1.6,5.8c0.1,0.8,0.5,1.5,0.9,2.2c1.6,2.8,3.1,5.5,4.2,8.6c0.8,2.3,1.3,4.7,1.9,7C320.1,448,320,448.7,319.7,449.4
		z M415,266.7c-0.1,0.2,0,0.4-0.2,0.6c-2.8,2.4-5.6,4.9-8.3,7.5c-4.2,4-8.4,8-12.7,12c3-4.1,5.9-7.6,9.9-10.9
		c2.4-2.1,5.1-4.6,7.2-7.1C412,267.3,413.4,266.8,415,266.7z M381.8,300.9c0.6-1.7,1.2-3.3,2.3-4.7c2.7-3.1,5.7-6.1,8.6-9.1c0.3-0.3,0.8-0.4,1.2-0.6
		C389.8,291.4,385.8,296.1,381.8,300.9z"/>
<path fill="#00B0A0" d="M333.7,404.6c-1.4-7-4-15.1-4.1-22.1c-0.3-13.6,0.9-26.1,3.7-39.1c1.6-7.3,5.6-13.3,8.4-20.1
		c0.2-0.4,0.5-0.7,0.7-1c2.5-4.3,4.7-8.2,8.4-11.6c8.6-8,17.3-16,26.5-23.4c7.4-6,15.4-11.3,23.3-16.6c7.2-4.8,14.8-9.3,22.2-14
		c1.2-0.8,2.6-1.3,4-1.9c0,1-0.1,1.9-0.9,2.6c-3.5,3.2-7,6.4-10.7,9.3c-1,0.8-2.1,0.7-3.1,1.6c-3.7,3.6-7.8,7-11.6,10.5
		c-2.5,2.3-4.4,5.1-6.5,7.7c0,0,0,0,0,0c-4,4.8-8.7,9.1-12,14.5c-5.7,9.2-12.6,18.5-16.1,28.6c-6.1,17.3-8,34-8.9,52.1
		c-0.2,4.8,2.5,9.7,3.5,14.4c-0.9-0.2-1.3,0.2-1.8-0.9c-1-1.9-1.8-4.4-2.6-6.5c-0.6-1.5-0.6-3.5-1.6-4.7c-1.7-2-2.8-2.7-5.5-1.9
		c-2.7,0.8-6,1.7-8.2,3.8c-4.1,3.9-5.5,8.2-6.2,13.8C334.2,401.4,334.5,403.3,333.7,404.6z M164.8,510.4c-1.7-1.7-2.7-1.6-4.5-3.8c-9.1-11.1-16.5-24-23.2-37c-0.1-0.1-0.3-0.3,0.1-0.4
		c0.4,0,0.8,0,1.2,0.3c2.6,1.8,3.4,4,6.5,5.6c4.6,2.4,9.7,3.7,15.5,4c1.5,0.1,4.3,0.1,6.2-0.8c4-2,8.8-5.6,11.8-8.6
		c2.1-2.1,2.7-4.7,3.3-6.8c0.9-3,0.1-4.8,0.3-7.4c0-0.6,0.1-0.3,0.1-0.8c1.8,5,2.5,10.1,4.7,15c2.7,6,6.6,11.6,10.6,16.9
		c1.5,2,3.5,3.6,5.2,5.4c-0.5,0.4-1,0.2-1.5,0c-1.8-0.6-2.1-2.4-4.3-2.5c-3.4,0-5.2,0.7-9,2.2c-3,1.2-8.2,3.6-11.4,5.4
		c-0.3,0.2-0.5,0.3-0.8,0.4c-2.5,1.5-5.8,3.8-8,5.2c-1.3,0.9-2.1,1.6-2.6,2.4c-0.9,1.6-0.1,1.8,0.1,3.1c0.1,0.5,0.4,0.6,0.3,1.1
		C165.5,509.8,165,510,164.8,510.4z M350,435.1c1.6,2.9,0.4,4.7-1.4,6.8c-3,3.4-7.1,5.6-10,8.9c-3,3.3-5.1,6.4-6.6,10.6c-0.5,1.5,0,3.4,0.8,4.9
		c1.7,3.3,4.1,6.4,6.5,9.1s4.8,5,7.1,7.8c-9.7-10.7-18.5-21.8-26.6-33.8c-1.3-4.7-2.7-9.4-4.1-14c-0.2-0.7-0.6-1.3-0.9-1.8
		c-1.5-2.2-2.2-4-2.7-6.6c-0.1-0.8-0.5-1.5-1-2.2c-0.5-0.7-0.6-1.9-0.4-2.7c0.2-0.7,0.9-0.8,1.2-0.4c0.9,0.9,0.6,1.9,0.7,3
		c1.4-0.1,2.2,0.2,2.8,1.5c0.1,0.2,0.4,0.8,0.6,0.7c1.5-0.9,2.7-2.5,3.4-3.8c0.7-1.4,0.8-1.8,2.1-2.4c0.1-0.1,0.3,0,0.4-0.1
		c2.7-2.4,6.3-3.8,8.9-6.3c2.6-2.6,2.7-5.8,3.4-9.2C338.8,415.3,344.6,425.3,350,435.1z M280.8,377.7c2.5-5.9,5-12.2,8-17.8c3-5.6,6.1-11,9.5-16.1c3.4-5.1,6.9-9.7,10.9-14.1
		c8.5-9.5,17.6-18.1,26.8-26.8c0.7-0.6,1.3-1.3,2-1.9c0.7-0.6,1.3-0.7,2-1.2c-0.7,1-1.3,1.8-2.2,2.7c-3.9,3.6-7.5,7.3-11,11.4
		c-0.3,0.4-1.2,0.7-1.7,1c-0.5,0.3-1,0.9-0.8,1.6c0.2,0.6,0.8,0.7,1.3,0.7c3.2,0.1,6.4,0.4,9.5,0.9c0.7,0.1,1.1,0.4,1.4,1
		c0.3,0.6-0.6,0.9-0.9,1.1c-1.3,0.6-1.4,1.7-1,2.8s0.6,1.7,0.1,2.8c-1.4,2.8-3.3,5.4-4.8,8.1c-2.8,4.6-6.2,8.6-8.7,13.4
		c-4.9,9.3-10,17.7-12.8,28.1c-2.8,10.4-2.9,21.9-3.9,32.7c-0.7-4.4-1.4-9.5-2.4-13.7c-0.6-2.4-1.4-2.4-3.3-3.5
		c-1.1-0.6-1.6-0.9-1.9-2.3c-0.1-0.4-0.8-0.4-1.3-0.2c-2,0.8-4.3,1.8-6.5,2.2c-3.7,0.8-7.1,2.1-10.9,2.1c-1.6,0-1.2-1.5-0.8-2.8
		c1.1-3.6,2.2-7.6,3.4-11.3C280.9,378.1,280.7,377.8,280.8,377.7z M340.6,299.3c1.1-1.1,2.3-2,3.7-2.8C343.2,297.6,342,298.5,340.6,299.3z"/>
<path fill="#00C0B0" d="M304.6,408c0.2,2.4,0.9,4.8,1.1,7.2c0.1,1.2-0.3,2.8-0.1,3.8c4.3,18.1,9.7,35.6,16.2,52.8
		c0.1,0.2,0.3,0.7,0.1,0.6c-1-0.5-1.7-1.7-2.3-2.5c-1.5-2-3.5-4.4-4.6-6.4c-1.1-2-0.9-4-1.5-5.7c-0.6-1.7-1.1-2.9-2-4.1
		c-0.9-1.2-1.1-0.8-2-0.1c-1,0.7-1.5,1.9-2.7,2.5c-3.1,1.4-5.8,2.4-9.4,2.8c-6.2,0.6-12.8,1.7-18.9,3.1c-2,0.4-3,0.1-4.6-1.2
		c-0.6-0.5-1.1-1.5-1.7-2.1c-0.6-0.6-1.3-1.1-1.4-2c-0.7-5.3-1.9-10.1-2-15.6c-0.1-7.1-0.3-13.9,0.8-21.2c1.8-12.9,5.3-26,8.7-38.6
		c0.2-0.8,0.7-1.6,0.9-2.2c0.2-0.6,0.6-1.1,0.9-1.1c1.5,0,1.1,1.3,0.8,2.2c-0.8,2.5-1.8,5.8-2.3,8c-0.5,2.2-0.5,3.2,1.6,3
		c4.9-0.4,9.7-2.5,14.5-3.6c1.2-0.3,2,0.2,2.6,0.9c0.7,0.7,1.4,0.8,2.1,1.3c1.6,1.2,2.7,1.8,3.1,3.9
		C303.8,398.2,304.1,403.2,304.6,408z M164.5,510.2c0.6-0.5,0.2-0.7,0.1-1.4c-0.2-1.5-1.2-1.6-0.1-3.3c1.1-1.7,3.5-3.4,5.5-4.5
		c0.8-0.5,1.8-1.2,2.7-1.8c1.9-1.2,4-2.5,6.1-3.6c1.2-0.6,2.6-1.4,3.8-2.1c0.4-0.2,1-0.6,1.3-0.7c3.2-1.3,7.2-2.7,9.8-4.4
		c1.3-0.8,1.7-0.6,2.5-0.3c2.3,0.9,3.5,2.3,5.5,3.5c0.3,0.2,0.6,0.5,0.9,0.1c3.2,3.2,5.4,5.5,8.7,9c6.2,6.6,12.9,14.2,19.2,21
		c-1.2,0-2.1-0.6-3-1.4c-3.8-3.4-7.2-7.2-11.4-10c-1.9-1.3-3.5-1.4-5.8-1.3c-3.2,0-6.5,1-9.8,1.5c-7.1,1.1-16.1,0.7-22.5,3.3
		c-2.2,0.9-2.1,1.6-1,3.1c3.2,4.2,8.2,7.2,12.3,10.6c0.9,0.7,1.4,1.1,1.7,2.1c0,0-0.2,0-0.2,0c0,0-0.3-0.2-0.4-0.2
		c-5.8-3.6-13.7-9.1-18.4-12.9C168.3,513.4,167.8,512.8,164.5,510.2z M376.5,456.7c0,0.1,0,0.2,0.1,0.2c0.8,4.1,0.9,6.7-1.3,10.6c-1.2,2.1-3.1,4.7-4.6,6.8
		c-1.5,2.1-3.4,4.1-5.1,5.8c-1,1.1-1.9,2.4-2.4,3.5c-0.5,1-1.1,1.7-1.6,2.3c-1.1,1.2-1.9,2.3-0.4,3.3c5.2,3.8,11,6,17,8.3
		c1.1,0.4,2.2,0.7,3.1,1.5c-10-3.3-19.7-6.8-29.1-11.6c-2.2-1.1-4.2-2.6-6-4.5c-3.6-3.6-7.7-7-10.7-11.2c-3-4.3-3.6-8.9-3.6-14
		c0-0.9,0.6-1.7,1.2-2.4c4.1-4.3,8.6-8.1,12.9-12.2c2.3-2.2,3.5-4.7,4.5-7.7c5.5,5.3,11.1,10.6,16.9,15.6c3.1,1.6,6.1,3.4,9,5.3
		C376.5,456.3,376.5,456.6,376.5,456.7z"/>
<path fill="#30F0FF" d="M182.4,454.9c-0.2,2.2,0.6,3.5,0.1,6c-0.5,2.5-0.7,5.3-2.7,7.8c-3.2,3.9-8.9,8.7-13.8,10.1
		c-6.2,1.9-12.3,0.5-17.5-1.4c-5.2-1.8-6.6-5.3-10.7-7.9c-0.3-0.2-0.3-0.2-0.6-0.1c-3-6.4-5.4-12.7-7-19.7c-0.6-2.5-1-5.3-2.3-7.7
		c-0.3-0.5-0.7-1.3-1.7-0.7c-2.4,1.7-4.8,1.1-5.4,5c-0.8,5.1-0.9,11.1,1.1,16.3c4.9,12.9,11.3,25.9,15.5,38.8
		c1.3,3.9,1.1,7.2,0.7,10.7c-0.4,3.6-2.1,3.8-5.2,3.8c-1.5,0-3.1-1.1-4.3-2.3c-23.9-23.8-45.6-49.9-61.3-79.5
		c-7-13.2-7.8-25.2-9.9-39.1c-1.2-8,3.6-14.1,5.1-21.6c0.5,0.2,0.8,0.7,0.7,1.2c-0.5,2.5-1.7,5.2-2.5,7.4c-0.8,2.3-1.5,4.4-1.9,6.6
		c-0.4,2.1-0.7,4.1-0.6,6.1c0.1,5.1,0.8,9.7,1.6,14.7c0.2,1.2,0.4,2.1,0.8,3.3c2.1,6.4,3.4,12.2,6.3,18.6c4,8.8,8.2,17.5,12.9,26.4
		c3.2,6,7.4,12.9,11.7,18.7c4.2,5.8,9.6,10.8,14.8,15.6c1.9,1.7,3.9,3.6,5.5,5.4c1,1.1,2.1,2.5,3.2,3c3.8,1.9,6.3,1.8,10.3,0.9
		c1.3-0.3,2.4-1.3,3.8-0.4c1.4,0.9,2.1,2.4,2.3,4.1c0.1,0.9-0.4,2-0.5,2.9c0,0.9,0.1,1.7,1,2.1c0.9,0.4,1.9,0.3,2.1-0.8
		c0.6-3.3,0.9-5.9-0.1-9.3c-1.6-5.2-3.6-10.4-5.4-15.8c-1.3-4-3.5-8.3-5.3-12.2c-1.4-2.9-3.1-6.4-3.6-9.4c-1.1-6-1-11.7-0.3-17.4
		c0.3-2.7,1.8-3.6,3.6-4.9c1.9-1.3,3.9-1.1,5.7-0.4c1.8,0.7,1.4,2.1,2,3.4c0.6,1.4,1.3,2.5,2,3.8c0.6,1.3,0.5,2.4,0.3,3.8
		c-0.1,1.4-0.2,3.1,0.2,4.4c0.4,1.4,0.8,2.7,1.2,3.9c1,2.6,2.1,5,3.5,7.4c0.7,1.2,1.9,1.6,3,2.4c0.5,0.4,0.7,0.6,1,1.4
		c0.2,0.8,0.8,1.8,1.6,2.3c0.8,0.4,1.1,1.4,2.1,1.6c2,0.3,2.4,1,4.6-0.2c2.2-1.2,5.3-4,7.1-6c1-1.2,1.1-2,1.9-3.2
		c1.8-2.5,4.5-5.2,6.6-7.1c1.2-1.1,1.2-1.1,1.6-2.3c0.5-1.2,1-1.4,2-2.2c1-0.8,3.2-1.6,4.3-2c1-0.4,1.5-0.4,2.2-0.3
		c0.6,0.2,0.5,0.4,1,0.4c0.5,0,0.8-0.1,0.8,0.4c0,0.5,0.8,0.1,1-0.1s0.8-0.4,1-0.3c0.3,0.2,0.3,0,0.4-0.1c0.2,0,0.1-0.1,0.1-0.1
		c-0.4-0.6-0.8-1.1-0.8-1.8c0.1-0.7-0.9-0.7,0.4-1s2.1-1.1,3.9-0.6c1.7,0.4,3.4,0.9,4.5,3c1.1,2.2,1.3,4.5,3,7
		c3.2,4.7,7.8,8.9,12.3,12.9c4.5,4,8.8,8.6,13,13.1c2.2,2.3,5,3.5,7.8,4.9c2.9,1.4,4.9,4.2,5.9,7s2,4.4,3.9,6.3
		c0.8,0.8,1.3-0.1,2-0.4c3.5-1.4,6.1-2.2,9.6-0.2c2.3,1.3,3.2,4,4.6,6.2c1.4,2.2,2.8,4.5,4.5,6.6c1.7,2.1,3.3,4.1,5.1,6.2
		c2.5,3,5.1,6.1,7.7,9.1c2,2.2,3.9,4.4,6.1,6.5c3.5,3.4,7.3,6.8,10.8,10.2c-4.4-2.9-9.5-6.1-13.5-9.3c-12-9.7-24.4-18.3-35.1-29.1
		c-13.1-13.3-24.8-26.9-38.2-40c-3.2-3.1-6.4-7.6-8.4-11.7c-0.5-1-0.9-2.3-1.1-3.1c-0.5-1.7-1.4-3.1-2.4-4.1c-0.9-1-1.6-0.4-2.5-0.4
		c-0.9,0-1.3,0.2-1.5,0.8c-0.5,1.9,0.2,3.4,0.5,5.3C182.3,454.5,182.4,454.6,182.4,454.9z M118.9,325.6c-2.1,1.5-4,2.5-6.2,4c-2.2,1.5-4.6,3-6.9,4.7c-11.1,8-22.1,16.2-32,25.7
		c-3.7,3.6-6.1,8.4-9.2,12.5c-0.6,0.8-1.1,1.6-2,2c0.1-0.4-0.1-0.9,0.1-1.2c4.2-6,7.6-12.9,13.2-17.8c13.1-11.5,27.6-20.5,42.2-29.8
		C118.3,325.7,118.7,325.8,118.9,325.6z M259.6,520.1c-4.1-4.5-7.5-9.1-11-14.1c-2-2.8-4.1-5.1-7.7-6c-1.6-0.4-3,1-4.3,1.9c-1.3,0.9-2.2,1.8-3.5,0.2
		c-2.1-2.5-2.9-4.9-4.2-8.4c-0.6-1.7-3.7-4.5-5.8-4.9c-2.1-0.4-3.6-1-5.1-2.2c-2.3-2-3.7-4.5-5.6-6.7c-1.9-2.2-3.8-4.2-6-6
		c-3.9-3.3-8.4-7.4-11.9-10.9c-2.8-2.8-4.9-7.2-5.9-9.9c-1.3-3.7-2.9-3.7-5.1-4.8c-2.2-1.1-1.9,0.2-3.2,0.7
		c-1.3,0.5-0.3,0.7-0.7,1.4c-0.4,0.6,0.3,0.3,0.4,0.6c0.2,0.2,0.5,0.4,0.1,0.5c-0.4,0.1-1.1,0.1-1.5,0.3c-0.4,0.2-1.6,0.5-1.8,0.2
		s0.7-0.4-0.1-0.4c-0.7,0.1-1.2,0.1-1.9-0.3c-0.7-0.4-1.1-0.1-2,0.3c-0.9,0.4-2.3,0.7-3,1.6c-0.7,1,0.9,0.4,1.2,0.5
		c0.3,0.2-1.6,1.3-2.1,1.5c-0.5,0.2-1.5,0.8-1.9,1.3c-3.3,3.8-5.6,7.2-9,11.3c-2.3,2.8-6.5,6.3-10.2,7.6c-0.8,0.3-1.1,0.2-1.5,0
		c-1.8-1-3.1-2.2-4.7-3.5c-0.6-0.5-0.5-0.9-0.7-1.6c-0.3-0.7-0.6-1-1.2-1.4c-1.3-0.9-2.5-1.7-3.3-3.2c-0.8-1.5-1.5-3-2.1-4.6
		c-1-2.5-1.9-5-2.4-7.8c-0.3-1.5,0.4-3.2,0.4-4.8c0-0.6-0.2-1-0.7-1.6c-1.4-1.6-1.1-3.7-3-5.3c-1.8-1.5-3.9-2.2-6.4-0.4
		c-1.1,0.8-2.7,1.7-2.7,3.9c0.1,5.7-0.8,11.5,1,17.5c1.8,6,5.5,12.4,7.8,18.3c1.5,3.8,2.4,7.7,3.5,11.4c0.6,1.8,1.4,3.4,1.9,5
		c1.3,3.9,1.9,7.5,1.4,11.3c-0.3,2.2-1.8,2.6-3.6,2.2s-1.7-2.2-1.6-3.6c0.2-1.4,0.7-2.5,0.4-3.8c-0.3-1.3-1.2-2-2.3-2.4
		c-1.1-0.4-1.3,0.8-2.3,1c-5.6,0.8-9.1,0.3-13.7-3.4c-2.7-2.2-5.6-5.4-8.5-7.8c-2.9-2.4-5.9-4.9-8.1-7.9
		c-5.4-7.2-10.3-14.7-15.2-22.2c-0.8-1.2-1.2-2.5-1.7-3.9c1.4,1,2.4,1.9,3.4,3.3c5,7.3,9.9,14.9,15.4,21.8c1.9,2.4,4.3,3.4,7,4.7
		c1.7,0.8,4.1,1.3,5.7,2.2c1.6,0.9,2.6,2.4,3.8,3.6c1.1,1.2,2,2.6,3.7,2c1.7-0.6,1-2.1,0.5-3.5c-1.6-4-3.8-8.4-4.5-12.6
		c-1-5.8-0.3-10.8,1-16.5c0.9-3.7,1.7-7.7,2-11.5c0.2-1.9,0.4-4,0.9-5.6c0.7-2.4,1.9-4.4,3.9-5.4c3.6-1.8,7.3-2.1,11.1-2.2
		c2,0,1.4,1.2,0.8,2.4s-1.8,2.3-1.1,3.8c0.4,0.8,1.3,0.3,2.1,0c0.8-0.3,2.3-1,2.4,0.7s-1.1,3.6-1.7,5.3c-0.8,2.3-0.8,4.5-0.2,6.8
		c0.2,0.7,0.3,1.3,0.5,1.9c0.5,1.4,1.4,2.7,2.3,3.8c0.9,1.1,1.3,1.9,1.4,3.3c0,0.5,0.5,0.6,0.9,0.7c0.4,0,0.7,0,1,0
		c2.1,0.2,4,0.4,5.9,1.2c0.6,0.3-0.4,1-0.4,1.3c5.1-3.2,12.2-8.7,16.1-12.2c4-3.5,5.3-4.7,8.6-7.7c0.6-0.6,0.2-0.3-0.4-0.6
		c-2-1-3.2-1.9-5.6-2.8c-1.1-0.4-4.3-0.4-5.8,0c-1.4,0.5-3.2,1.1-4.4,0c-1.2-1.1,1.3-1.8,1.9-1.9c0.6-0.2,0.7-0.4,1.2-0.6
		c-1.9,0.1-3.9,0.1-5.7-0.5c-1.9-0.6-3.9-0.9-5.7-1.5c-1.8-0.6-2-1.8-1.9-3.4c0.1-0.8-0.2-1.1-0.7-1.6c-1.6-1.3-1.9-1.5-1.2-3.7
		c1.1-3.2,2.2-7.6,3.4-10.7c1.1-3.1,2.8-4.3,5.9-3.8c3.1,0.5,5.1,2.7,7.8,4.1c2.8,1.4,5.6,3.3,8.4,4.7c1.1,0.6,2.6,0.8,3.6,1.2
		c3.3,1.3,5.6,3,6.9,6.3c0.7,1.9-0.5,3.7-0.6,5.4c-0.2,1.7-1.4,2.8-0.7,4.4c0.7,1.6,2,1.3,3.5,1.9c4,1.5,7.6,3.8,11,6.6
		c0.2,0.1,0.3,0.3,0.7,0.3c11.4-0.2,21.9-2.7,32.6-6.7c2.3-0.9,4.6-1.6,7-2c0.7,3.3,0.7,6.8,1.3,10.2c1.2,6.9,2.3,13.6,4.4,20.3
		c2.4,7.8,5.3,15.4,8.2,23c1.9,4.9,4.6,9.5,7.4,14.1C255.5,514.1,257.7,517.1,259.6,520.1z M273.3,535.7c-2.2-2-4.1-4.1-5.8-6.4C269.6,531.3,271.5,533.5,273.3,535.7z"/>
<path fill="#0060C0" d="M474.4,151.1c2.1,3.3,4,6.8,6.9,9.6c6,5.7,13.7,10.1,19.6,15.8c4.8,4.6,6.6,9.4,7.2,15.8
		c0.4,4.2-1.8,8.3-3.4,12c-1.6,3.7-4.1,6.1-6.2,9.4c-0.7-0.6-0.6-1.4-0.3-2.1c1.5-3.6,3.5-7.4,4.4-11c0.7-2.7-0.4-3.4-2-5.3
		c-0.2-0.3-0.8-0.5-1.2-0.6c-2-0.6-2.9-0.2-5,0.5c-1.1,0.4-3.1-0.2-3.6-1.7c-0.5-1.5-0.3-3.2-0.7-4.7c-0.8-3.3-2.1-5.4-4.9-7.5
		c-2.9-2.1-6.2-4.1-8.9-6.4c-3.7-3.1-7.5-6.6-11.2-9.8c-1.5-1.3-3.1-2.6-4.6-3.4c-1.5-0.9-2.6-1.2-4.1-0.7c-1.6,0.6-1,2.2-1.4,3.4
		c-1.8,5.4-3.4,10.3-8,14c-7.6,6.3-16.4,12.7-24.8,17.5c-5.6,3.2-10,1.8-13.5-2.8c-3-3.9-1.1-6.5,1.9-9.9c4.1-4.6,9.8-8.4,14.2-13
		c10.2-10.5,20.1-21.4,29.5-32.7c2.4-2.9,4.3-6.3,6.5-9.4c0.6-0.8,1.2-1.4,2.1-1.8c0.4,1.5-0.1,3-0.2,4.4c-0.2,2.5,0.3,4.1,1.7,6.3
		c0.7,1.1,1.8,2,2.6,3.2c0.8,1.2,2,2.4,3.1,3.5c1.8,1.9,3,3.9,3.8,6.4C473.9,150.5,474.2,150.8,474.4,151.1z M474.1,147.5c0-2.1,0.2-4.1,0.7-6.1C474.6,143.4,474.3,145.4,474.1,147.5z"/>
<path fill="#00E0C0" d="M483,499.4c1.1,5.4,2.2,11,2.7,16.5c0.5,5.5,0.4,10.7,0.4,16.1c0,1.1-0.6,2.1-1,3.1c-2.8-3-4.7-7.2-7.9-9.8
		c-10.2-8.4-20.2-15.7-32.5-20.6c-7.4-3-15.8-2.6-23.6-4c-0.6-0.1-1.4-0.1-2-0.2c-5.3-0.6-11-0.2-16.1-1.2c-3.4-0.7-4-1.7-3.1-5.2
		c1-3.5,3.3-7.4,4.9-11c1.6-3.6,3.4-7.6,4.9-11.4c0.4-1,0.6-2.2,0.8-3.2c0.2-1.1-0.3-2.1-1.1-2.7c-0.8-0.6-1.7-0.7-1.5-1.8
		c0.2-1.1,1.3-1.2,2.2-1c2.5,0.5,5-0.4,7.5,0.7c16.2,7,31.5,13.6,44.6,26.1c9.1,8.7,13.9,21.1,20.1,32c0.7,1.2,0.9,2.9,1.5,4.2
		c0.1,0.2,0.3,0.4,0.5,0.5c-0.5-8-1.3-16-2.4-23.9c-0.1-1-0.1-2,0.3-3C482.4,499.3,482.8,499.4,483,499.4z M338.1,572.5c2.8,0.5,5.6,1.4,8.3,2.1c9.5,2.7,19,5.2,28.6,7.2c2.2,0.5,4.4,0.3,6.4-0.1c2-0.3,2.5-1.5,3.4-3
		c0.9-1.5,1.8-3,3.2-4.1c1.4-1.1,2.8-2.6,3.6-3.9c0.8-1.3,0.2-1.7-0.4-2.6c-0.6-0.9-1.5-1.3-1.1-2.4c0.4-1.1,1.7-1.8,2.8-1.3
		c17.1,9,32.9,16.7,45.1,32.4c7.6,9.8,8.3,23.3,11,35.3c0.2,0.9,0,2.3,0.5,3.2c1.4-2.9,2.7-5.9,3.9-8.9c-1.8,6.3-4,12.5-6.4,18.5
		c-1-4.2-0.5-9.8-2.7-13.5c-7.8-13.2-15.6-25.1-28.8-33.2c-12.5-7.7-27-10-40.7-14.5c-11.4-3.8-23-6.7-34.4-10.4
		C339.7,573.2,338.9,572.8,338.1,572.5z M455.5,613.7c-0.1-2.3,0-4.6,0.2-7C455.8,609.1,455.7,611.4,455.5,613.7z M453.5,626.6c0.1-1.7,0.4-3.3,1-4.8C454.3,623.4,454,625,453.5,626.6z M454.9,618.3c0-1.6,0.2-3,0.5-4.6C455.5,615.3,455.3,616.8,454.9,618.3z M246,497c-1.9-4.3-4.2-8.6-5.7-13.1c-2.9-8.9-5.5-17.8-7.5-26.9c-0.9-4.3-0.5-9-0.8-13.3
		c-0.2-2.6,0.3-4.8,1.5-7c1.2-2.1,2.8-4.5,4.1-6.2c1.8-2.3,2.7-2.8,5.3-1.5c2.5,1.3,3.9,3.3,7,3.8c3.1,0.6,6.8,0.7,10.2,1.2
		c2.1,0.3,4.6,1,6.6,2c0.4,0.2,0.6,0.8,0.7,1.2c0.4,1.6,1.2,3,2.1,4.4c0.9,5.6,1.5,11.4,2.8,16.8c1.3,5.4,2.5,10.4,4.8,15.6
		c3.4,7.5,7,14.4,11.7,21.5c4.7,7.1,10.9,14,16.4,20.7c0.4,0.5,0.9,1.1,1.1,1.7c-4.1-4-8.3-8.2-12.3-12.4c-2.1-2.1-3.6-4.4-6.1-6
		c-2.5-1.6-5.5-2.4-8.3-2.8c-3.9-0.6-7.6-1.9-10.7-4c-3.1-2.1-5.6-3.1-9-4.1c-1.8-0.5-3.7-0.4-5.4-0.8c-1.8-0.5-3.1-1.4-4.4-2.6
		c-0.8-0.7-1.2-1.7-2.2-2.2c-0.9-0.5-2-0.6-2.9-0.2c-0.9,0.4-1.4,1.2-1.3,2.2c0.3,3.3,1.1,6.5,1.9,9.7
		C245.7,495.4,245.9,496.1,246,497z"/>
<path fill="#0090C0" d="M415.1,266.6c2.5-2.7,5.3-5.2,8-7.8c1.3-1.2,2.5-2.6,3.7-4c0.7-0.7,1.6-1.4,2.3-2.1c-0.9-0.3-2-0.3-2.9,0.1
		c-9.7,4.3-19.7,8.2-29.1,13c-16.4,8.2-32,17.4-47.7,26.7c-1.9,1.1-3.4,2.6-4.9,3.8c-1.6,1.2-2.6,2.1-4.1,3.2
		c-0.3,0.2-0.5,0.4-0.9,0.7c-0.4,0.3-1.1,1-1.8,0.4c-2.7-2.3-4.8-5.5-6.5-8.6c-1.7-3-4.2-4.7-6.1-7.3c-1.3-1.8-0.7-3.3,1.1-4.6
		c9.5-6.6,19.5-12.6,29.5-18.5c0.5-0.3,1-0.6,1.5-0.8c9.7-4.2,19.5-8.2,29.4-12c1.2-0.4,2.5-0.5,3.7-1c9.2-3.2,18.4-6.6,27.6-10
		c1.2-0.4,2.4-0.9,3.7-1.2c-0.4,1-1,1.9-1.9,2.4c-3.2,1.9-7.3,3-10.3,4.7c-3.1,1.7-3.3,2.8-1.9,6c0.8,1.8,2.5,4,3.8,5.7
		c0.6,0.8,1.8,0.6,2.6-0.1c0.8-0.7,1.8-1.2,1.6-2.6c-0.1-0.4-0.4-0.9-0.6-1.5c-0.2-0.6-0.5-1.7,0.3-2.3c0.8-0.5,1.9-0.6,2.8-0.4
		c5,0.8,9.7,0.8,14.7,0.1c1.1-0.2,2.2-0.3,3.4,0c-0.6,1.7-1.5,3.2-3,4.4c-4.3,3.6-9.1,7.1-13,10.8c-2.2,2.1-3,4.4-3.7,7
		c-0.6,2.6-0.7,5.4-0.6,7.8c0.1,2.5,0.3,4.2,2,5.9c1.7,1.7,2.8,2.1,5,0.3c2.2-1.8,4.2-4.4,6.3-6.9c7-8.4,13.7-17.4,21.4-25.4
		c6.4-6.6,14.1-12.2,21.2-18.1c1.3-1.1,2.5-2.2,3.7-3.2c1.2-1,2.2-1,3.6-1.1c-0.9,1.2-1.9,2.1-3,3c-8.5,7.1-17.3,13.7-25.1,21.6
		c-7.7,7.9-14.4,17.1-21.4,25.6c-1.6,1.9-2.7,4.4-4.8,5.3c-4.4,2-7.1,1.5-9.6-2.7c-1.7-2.9-1.1-6.7-1.1-10.1c0-1.9,0.6-4.1,0.8-6
		C414.9,267,414.9,266.8,415.1,266.6z"/>
<path fill="#0080C0" d="M478.9,230.6c-1,0.4-2.1,0.9-3.1,1.4c-4.7,2.5-9.4,4.8-14.4,6.9c-7.2,3-14.6,6-21.9,9
		c-1.2,0.5-2.4,0.7-3.7,0.9c-4.5,1-9,2.1-13.6,2.5c-1.3,0.1-2-0.7-3.1-1.2c-1.1-0.5-2.3-1.2-3.4-0.5c-1.1,0.8,0,1.7,0.2,2.5
		c0.6,1.7-0.2,3-1.3,3.9c-1.2,0.9-2.6,0.7-3.5,1.2c-1,0.5-1.5-0.1-1.6-0.7c-0.4-1.8-0.6-2.9-1.7-4.3c-0.1-0.1-0.2-0.1-0.2-0.2
		c-1-5.5-0.9-7.4,4.6-10.3c2.4-1.3,6.7-3.1,9.1-5.1c4.2-1.9,8.3-3.6,12.4-5.6c1-0.5,2-1,3-1.7c1.1-0.7,2.3-1.5,3.6-2.2
		c9.6-5.5,19.6-10.7,28.7-17.1c5.8-4.1,11.5-8.1,16-13.6c3.5-4.3,2.5-8.6,0.9-13.6c-0.2-0.6-0.9-1.3-0.6-2.1
		c2.9,1.7,4.8,3.6,5.6,6.9c0.4,1.5-0.2,3.2,0.2,4.6c0.4,1.4,1.4,2,2.5,2.5c1.1,0.4,1.2-0.8,1.5-1.4c0.7-1.4,2-1.3,3-0.7
		c1,0.6,1.9,1.1,2.5,1.8c2.2,2.6,3.4,3.5,2.5,7.2c-1,3.7-3.3,7.9-4.9,11.5c0,0.1-0.1,0.4,0.1,0.5c-5.3,5.4-10.8,10.6-16.8,15.4
		C480.8,229.8,479.9,230.2,478.9,230.6z"/>
<path fill="#00F0C0" d="M222.8,591.4c-19.6-1.7-31.9-9.3-44.6-24c-2.8-3.2-3.1-7-5.1-10.6c-0.3-0.6-0.2-1.1,0.2-1.7
		c0.3-0.6,1.2-0.2,1.7,0c4.3,1.6,10.5,3.7,14,5.8c9.1,5.5,15,9.4,24.5,3.3c3.4-2.2-1.2-7.1-2.4-10.1c-1.1-3-3.3-7.1-4.6-10.2
		c-0.5-1.2-1.8-2-1.2-3.4c0.6-1.4,0.9-1.9,2.8-2c6.9-0.6,14.2-1.8,21.2-3c2.6-0.4,5.6-0.7,8.1-0.5c1.6,0.1,1.9,0.2,2.6,1.8
		c3,6,4.2,12.5,5.2,19.2c0,0,0-0.1,0,0c-0.2,3.5-0.6,6.8-1.4,10.2c-0.1,0.6-0.3,1.4-0.6,1.8c-0.3,0.5-0.3,0.6-0.7,0.3
		c-0.4-0.3-0.3-1.1-0.6-1.5c-2.2-4.4-5-7-9.6-8.5c-2.3-0.7-4.3-1.4-6.3-2.5c-1.3-0.7-2.3-0.6-3.5-0.6c-2,0.1-3.7-0.4-5.6-0.8
		c-1.9-0.4-2.8-0.6-2.8,1.9s2,5.3,2.1,7.9c0.2,3.6-1.9,5.7-4.2,8.2c-0.6,0.6-1.7,0.9-2.1,2s-0.7,1.7-0.1,3.1
		c1.2,2.6,1.6,5.9,3.2,8.6s4,3.7,7.2,3.9c0.9,0.1,2.6-0.4,3.3,0.4C224.4,591.1,223.5,591.4,222.8,591.4z"/>
<path fill="#00E0B0" d="M245.5,555.9c-0.5-1.5-0.6-3.5-0.9-5c-0.9-5.4-1.7-9.9-4.7-14.5c-0.7-1-1.6-1.1-3-0.9
		c-4.8,0.4-10.2,1.2-15,1.9c-3.9,0.6-7.7,1.1-11.5,1.8c-0.3,0.1-0.7,0-0.9,0.1c-2.1,0.6-3.6,0-2.8,3s3,6.5,4.3,9.6
		c0.3,0.7,0.5,1.5,0.5,2.3c-6.5-8.7-12.6-17.3-20.8-24.5c-0.4-0.9-1.2-1.2-1.9-1.8c-4.2-3.4-9.3-6.3-12.4-10.7
		c-1.3-1.9-0.4-2.4,1.5-3.8c1.9-1.4,5.6-1.3,8.5-1.5c3.8-0.2,8.8-0.9,12.9-1.5s8.3-1.6,12.3-1.9c1.7-0.1,2.8-0.2,4.2,0.8
		c4.7,3.4,8.7,7.4,12.9,11.3c0.7,0.6,1.3,1.1,2.2,1.5c6.5,10.8,12.1,20.5,14.8,33C245.6,555.3,245.5,555.6,245.5,555.9z M376.4,456.8c-3.1-1.9-6.1-3.9-9.1-5.9c-0.1-0.6-0.6-1.1-0.6-1.7c0-2.6-0.2-4.1,1.5-6.4
		c1.2-1.8,3.3-3.8,4.8-5.6c1.5-1.8,3.4-3.9,4.9-5.5c0.7-0.7,1.4-0.5,2.1-0.5c1.5,0.1,3.2-0.6,4.2-1.2c1-0.7,1.7-1.2,2.6-1.1
		c2.9,0.4,5.2,1.6,7.9,2.3c1.9,0.6,3.5,1.1,5.4,1.5c0.4,0.1,0.7-0.2,0.8-0.5c3.5,0.3,6.6,0.7,10.1,1.1c4.6,0.4,9.4,0.9,14.1,1.5
		c0.9,0.1,1.9,0.5,2.7,1c-0.7,0.6-1.7,0.6-2.6,0.6c-5.2-0.5-10.4-0.9-15.6-1c-1.2,0-2.3,0.2-3.3,0.4c-1.1,0.3-1.9,0.7-2.5,1.5
		c-3.6,5.2-7.5,11.1-10.2,16.5c-1.6,3.3-0.3,4.3,0.3,7.3c0.1,0.6,0.7,0.9,0.5,1.6c-5.3-1.6-10.6-3.3-15.8-5.2
		C377.8,457.5,377.1,457.2,376.4,456.8z M223.2,591.4c0.3-0.4,0.7-0.7,1-1c1.6-1.6,3.8-2.5,5.4-4.1c4.4-4.2,7.8-8.8,11.1-13.9
		c0.8-1.2,1.3-2.7,2.2-3.9c0.1-0.1,0.3-0.2,0.4-0.3c-2.2,4.8-3.8,9.9-7.4,13.9C232.4,586.2,227.7,588.5,223.2,591.4z M244.1,566.2c0.4-3.4,0.9-6.9,1.4-10.3C245.3,559.4,244.8,562.7,244.1,566.2z"/>
<path fill="#00E0FF" d="M223.3,160.2c-0.8,1-1.6,2.2-2.1,3.3c-1.9,3.8-3.8,7.5-6.1,10.9c-2.3,3.5-4.7,6.7-6.9,10.2
		c-0.4-0.9-0.3-2-0.1-2.8c0.8-3,1.2-5.3,0.8-8.4c-0.4-3.2-1-6.5-1.2-9.8c-0.3-3.3-1.4-6.4-1.4-9.9c0-3.5,0.8-6.4,3.2-9.3
		c2.4-2.9,6-5.8,8.7-8.7c0.4-0.4,0.5-0.9,0.3-1.5c32.3-19.3,64.2-34.8,100.8-44.6c7.7-2.1,16.9,0.5,24.9,0.3
		c-12.3,1.5-24.7,2.8-37,4.6c-0.4,0.1-0.7,0.2-1,0.4c-1,0.6-2.1,0.9-3.2,1.3c-11.3,4.1-22.5,8.4-33.3,13.8
		c-4.9,2.5-9.3,5.9-14.1,8.6c-11.8,12.4-22.2,25.4-31.5,39.8C223.8,159,223.7,159.7,223.3,160.2z M469.7,211.1c-2.1,0.6-4,1.9-5.8,2.8c-1.8,0.9-3.7,2.1-5.6,2.3c-3.2,0.3-4.9-0.3-7.3-2.5
		c-2.9-2.6-5.5-5.8-8.7-8.3c-3.1-2.5-7.1-4.7-9.6-7.9c-1.9-2.5-1.6-4.3,0.6-6.6c5.3-5.4,12.1-9.9,17.4-15.5c3-3.2,3.1-6.9,3.5-11
		c0.2-1.6-0.3-3.1,1.2-4.2c1.4-1,2.9-0.9,4.4,0.1c4.1,2.7,7.8,6.1,11.6,9.3c4.6,3.8,9.2,7.5,13.9,11.3c2.6,6,3.8,11.2-0.3,16.9
		C481,203.4,474.7,206.5,469.7,211.1z"/>
<path fill="#00A0F0" d="M80.6,218.2c1.6-0.2,3.7,0.1,5.2,0.4c1.5,0.3,3.2,0.9,4.4,0.7c3.2-0.5,3.9-1.6,4.7-4.5
		c0.2-0.8,0.2-2.2,0.3-2.9c0.2-2.4-0.6-3.4-2.3-4.8c7.7-1,15.6-1.8,23.1-3.6c7.5-1.8,14.4-4.7,21.7-7c-0.4,1.2-1,2.2-2.3,2.8
		c-3.4,1.6-6.9,2.8-10.3,4.3c-1.7,0.8-3.5,1.2-5,2.4c-1.5,1.2-2.1,2.5-2.2,4.5c-0.1,2-0.5,4.2,0,6.2c0.4,2,0.8,3.2,3.4,3.1
		c4.7-0.3,9.8-1.3,14.6-2.5c3.5-0.9,7.1-2.4,10.5-3.6c1.1-0.4,2.1-0.4,3.2-0.2c-0.6,1.6-1.7,2.3-2.7,3.8c-1,1.5-1.6,2.3-1,4.4
		c1.3,4.4,3.3,9,4.3,13.6c0.7,3.3,0.6,6.9,0.9,10.4c0.2,4.1,0,8.3,0,12.5c0,1.1,0.5,1.5,1.5,1.9c1,0.4,2.5,0.8,3.6,1.2
		c1.1,0.4,1.8,0.9,2.7,1.6c-0.8,0.4-1.6,1-2.5,0.9c-10.8-1.5-21.4-3.8-31.8-6.9c-1.2-0.3-2.4-1-3.1-1.8c-2.3-2.8-3-4.9-3.3-8.5
		c-0.6-7.1-1.5-13.8-5.1-20.2c-1-1.8-2.7-2.2-4.8-2.5c-8.5-1.2-17.2-2.3-25.7-3.8C82,219.8,81.1,219.2,80.6,218.2z M164.7,264.5c1,0.5,1.6,0.3,2.4,0.6c1.8,0.8,2.5,1,2.1,3.2s-1.7,5-2.4,7.3c-0.1,0.3-0.6,0.6-0.7,0.8
		c-0.9,1.7-0.9,2.6,0.6,4c0.5,0.5,1.7,0.9,2.3,1.4c0.5,0.5,0.2,0.7,0,1.2c-16.4-3.9-32.4-8.7-48.3-14.3c-0.2-0.1-0.7-0.3-0.1-0.3
		c0.6,0,1.5,0.1,2.2,0.2c0.7,0.1,1.2-0.7,1.1-1.2c-0.1-0.5-0.3-1.3-0.3-1.5c0.1-2.3-0.6-3.6-2.3-4.8c-4.7-3.2-9.5-6-14.1-9.3
		c-0.7-0.5-1.1-1.3-1.7-1.9c1.1,0,2.1,0.4,3.1,0.9c12,5.4,23.9,10.4,36.8,13.3c5.1,1.1,10.6,0,15.8,0
		C162.3,263.9,163.8,264,164.7,264.5z"/>
<path fill="#0050C0" d="M474.3,150.7c0,1-0.7,0.2-0.7,0.1c-0.6-2.1-1.4-3.8-2.8-5.3c-3-3.3-6.2-6.3-8.9-9.8c-1-1.3-0.9-2.5-0.6-4
		c0.3-1.5,1.2-3.4,1.3-4.9c0.1-1.4,0.5-2.5,0.8-3.7c1.3-5.4,4.9-10,4.5-15.7c-0.8-11.6-5.8-19.9-13.1-28.8c-0.4-0.5-1.1-0.6-1.9-0.9
		c-0.7-0.3-2.3-0.9-1.9-2.1c0.4-1.2,1.8-1.4,2.9-1.2c5.1,0.9,11.1,0,15.5,3c8.7,6,13.5,12.7,16.1,23c1.6,6.3-0.2,12.8-1.4,19.1
		c-0.8,4.4-3.3,8.4-5.3,12.5c-1.5,3.1-3.2,6.1-4.1,9.4c-0.5,1.9-0.6,4-0.7,6C474.1,148.5,474.3,149.7,474.3,150.7z"/>
<path fill="#00F0B0" d="M394.4,463c-0.3-0.5-1-0.7-1.3-1.2c-1.3-2.1-2.2-3.2-1.2-5.8c0.9-2.7,2.5-5.4,4.2-8c1.6-2.6,3.8-5.9,5.5-8.4
		c1.3-1.9,2.6-3.3,4.5-3.9c3-0.9,5.2-0.8,8.3-0.6c4.8,0.3,9.3,0.4,14.3,1.5c3.5,0.8,7,1.7,10.2,4.1c8.2,6.1,17.3,11.6,23.8,19.9
		c9.1,11.7,14.5,25.3,20.4,38.8c-0.1,0.2-0.4,0.4-0.5,0.3c-1.3-1-1.7-2.5-2.4-3.9c-3.1-7.2-5-15.3-9.7-21.5
		c-9.1-12.1-20.1-21.6-31.8-30.8c-3.3-2.6-6.9-3.5-10.7-4c-3.8-0.5-4.8,1.6-7.3,3.9c-0.6,0.5-1,1.5-1.4,2.4c-1,1.9-1.7,4-2.3,6.2
		c-0.3,1.1-0.8,2.2-1.4,3.3c-0.6,1.1-1.3,2.7-1.6,4c-0.3,1.3,0.2,2.3,1,3.1c0.8,0.8,1.4,1.1,1.9,2.1c-3-0.1-6.1-0.1-9.1-0.2
		C403.3,463.7,398.9,463.3,394.4,463z"/>
<path fill="#00C0F0" d="M149.8,213.5c-1,0.1-2,0.4-2.8,0.6c-0.8,0.2-1.5,0.4-2.1,0.5c-1.7,0.1-3.1,0.2-4.2-1.1
		c-1.1-1.3-0.6-2.6-0.3-4.1c0.7-3.1,1.2-6.5,2-9.6c0.6-2.3,1.3-4.1,3.1-5.6c3.5-3,7.6-5.2,11.4-7.8c1.1-0.8,2.2-1.6,3.3-2.4
		c6.6-5.3,13.4-10.5,20-15.8c2.1-1.7,4-3.5,6.2-5.1c0,1-0.6,1.6-1.3,2.2c-3.6,3.3-7.3,6.6-10.3,10.3c-1.1,1.3-0.8,2.8-0.6,4.3
		c0.5,2.6,0.5,5.9,0.9,8.2c0.8,4.2,2.4,5,6.4,5.5c0.7,0.1,1.7-0.8,2.4-0.7c-0.5,1.1-1,2.1-2,2.7c-9.5,6-19.2,11.7-29,17.1
		C151.9,213.4,150.8,213.4,149.8,213.5z M255.7,118.6c10.1-6.4,20.2-12.7,31.1-17.8c5.4-2.5,11.4-3.8,17.1-5.6c0.7-0.2,1.5-0.2,2.3-0.3
		c4.3-0.3,8.7-0.7,13-0.9c1.5-0.1,2.7,0,4.3,0.3c1.6,0.3,2.5,1.7,2.8,3.1c0.3,1.4,0.7,2.2,1.5,3.2c1.3,1.6,1.5,2.9,1.3,4.8
		c-0.2,1.2,0,1.6,0.8,2.4c0.8,0.8,1.4,1.7,2,2.7c1.1,1.9,2.5,2.9,4.4,4.2c0.7,0.5,1.3,0.6,0.9,1.8c-1,3.7-1.8,7.7-2.6,11.6
		c-0.5,2.3-1.4,4.5-2.5,6.7c-0.6,1.2-1.2,2.7-1.3,4.2c-0.2,1.5-0.8,3-1.2,4.5c-0.1,0.5,0.2,1,0.8,1.2c0.6,0.2,1.4,0.7,2,1.1
		c0.5,0.4,1,0.9,0.7,1.6c-0.3,0.7-0.8,0.4-1.4,0.4c-0.6,0-1.2,0.1-1.5,0.7c-0.2,0.6,0.3,0.9,0.6,1.3c0.8,1,1.1,1.8,1,3.1
		c0,0.4,0,0.9-0.1,1.3c-1.1,5.4-2.5,10.1-5.8,14.7c-9.5,13-19.7,26-28.4,39.4c-1.5,2.4-0.8,2.9,1.7,3.4c4.6,1,10,1.4,14.9,2.1
		c3.6,0.6,7.6,0.6,11.1,1.4c3.5,0.8,6.5,2.2,10,3.1c1,0.3,2.1,0.4,3.2,0.6c3.6,0.9,7.2,2,10.7,3.5c0.5,0.2,1,0.5,1.5,0.6
		c3,0.6,5.8,1.6,8.6,2.6c0.3,0.1,0.6,0.4,0.7,0.6c1.8,2.2,3.7,3.5,6.2,4.6c1.6,0.7,2.1,1.4,2.1,3.2c0,0.3,0,0.7,0.3,0.9
		c1.1,1.3,2.7,2.7,4,3.6c1.9,1.4,2.8,3.2,4.1,4.9c2.2,2.8,4.2,4.1,7.6,4.6c2,0.3,4.1-0.5,6.1-0.2c-7.4,2.8-14.9,5.7-22.2,8.7
		c-3.6,1.4-7.1,3.1-10.6,4.5c-1.2,0.5-2.4,1-3.5,1.1c-2.4,0.2-4.2,0-6.1-1.4c-3.4-2.4-6.4-5.4-9.7-7.9c-0.6-0.4-1.2-0.7-1.9-0.9
		c-7.1-1.5-14.2-3.8-21.3-4.9c-9-1.4-17.8-1-26.8-0.9c-2.5,0-5.1,0.5-7.5,0.3c-2.4-0.3-2.9-1.3-4.1-3.2c-0.4-0.6,0-1.6-0.6-2.1
		c-0.6-0.6-0.6-0.8-1.3,0.2c-2,2.7-4.4,5.7-6.7,8.2c-0.7,0.7-1.6,1.3-2.4,1.9c-4.2,3.1-8.1,7.1-12.4,10c-7.8,5.1-15.9,9.6-24.5,12.8
		c-2.5,0.9-2.8-0.3-2-2.7c1.6-4.5,4-9.3,6.3-13.9c1.4-2.9,2.7-6,3.9-9.3c0.9-2.5,2.4-5.2,3.7-7.9c1.3-2.7,3.1-6.1,4.9-8.7
		c0.6-0.8,1.2-2,1.4-2.8c1.5-4.7,3.4-8.6,6.1-12.6c2-2.9,3.7-6,5.1-9.2c0.7-1.6,1.6-2.3,3.2-3.1c0.6-0.3,1.5-0.3,1.6-1.1
		c0.2-0.8-0.4-1-0.8-1.7c-0.4-0.8-0.8-1.6-0.4-2.6c2-5.7,3.8-11.5,5.8-17.3c0.6-1.7,1.6-3.3,2.6-5s1.5-3.8,1.9-5.9
		c0.2-1.4,0.8-2.7,1.7-3.9c1.4-1.9,2.5-4.2,3.6-6.3c0.6-1.1,1.6-1.5,2.5-2.1c7.9-5.1,15.6-10.3,22.8-16.3c1.4-1.2,2.1-2.8,3.3-4.2
		c1.7-2.1,3.5-4.2,5.3-6.3c0.6-0.7,1.4-1.2,2.1-1.7c-0.3-0.4-0.7-0.7-1.3-0.7c-4.9,0.1-9.8,0.6-14.7,0.6c-4.9,0-9.7-0.6-14.5-1.7
		c-0.8-0.2-1.2-0.9-1.5-1.7c-0.5-1.5-1.6-2.4-2.9-3c-1.3-0.6-1.9-1.1-2.2-2.5c-0.5-2.5-0.2-5.4-1.3-7.7c-1.1-2.3-2.2-2.8-4.7-2.1
		c-2.5,0.7-4.9,2.6-7.2,4.1C260.7,116.3,258.2,117.7,255.7,118.6z"/>
<path fill="#0070E0" d="M430.7,44.1c0.7-3.7,1.4-7.6,2.1-11.4c1.5-1.1,3-2.6,4.9-2.8c1.9-0.2,2.5,1.1,3.4,2.4c2.9,4.2,5.4,8.8,9,12.4
		c3.6,3.6,7.7,6.2,11.9,8.9c1.6,1.1,3.4,0.8,5.2,1.6c-0.2,0.6,0,1.5-0.6,2c-6.5,5-12.4,7.9-20.8,8.3c-1.7,0.1-3.7-0.9-4.9-2.2
		c-4.8-4.6-8.1-9.7-10.6-15.9C429.9,46.4,430.5,45.3,430.7,44.1z"/>
<path fill="#3090E0" d="M466.7,54.7c-1.4,0.7-2.8,0.9-4.3-0.1c-5.8-3.9-11.4-8.2-16.3-13.4c-2.3-2.5-3.8-5.9-5.6-8.8
		c-0.7-1.1-1.5-2.1-2.5-3c2.6-1.5,5.3-2.9,8-4.2c1.2,0.9,1.9,2.2,2.8,3.3c5.1,6.7,10.6,12.4,17.4,17.3c1.3,0.9,3.1,0.6,4.3,1.8
		c0.7,0.7,0.6,1.6,0.1,2.4C469.4,52,468.7,53.7,466.7,54.7z"/>
<path fill="#60B0F0" d="M470.3,46.7c-1.9,1.4-4.1,0.7-5.7-0.5c-6.8-5.1-11.9-10.9-16.8-17.7c-0.7-0.9-1.1-2.2-1.8-3.1
		c1.8-1,3.6-1.9,5.5-2.7c1.5,1.3,2.5,2.9,3.7,4.4c3.9,4.7,8,8.7,13.2,12c1.6,1,3.6,0.7,5.3,1.5C473,42.7,472.2,45.3,470.3,46.7z"/>
<path fill="#80C0F0" d="M473,39.9c-0.8,1.1-2.2,1.3-3.4,0.6c-5.7-3.3-10.4-7.1-14.7-12.1c-1.4-1.6-2.3-3.9-3.5-5.7
		c2.4-1.2,4.8-2.2,7.3-3.1c1,0.9,1.6,2.2,2.4,3.3c2.2,3.2,4.2,6.3,7.3,8.6c2.1,1.5,4.2,1,6.5,0.4c0.4-0.1,1-0.1,1,0.4
		C475.5,35,474.9,37.6,473,39.9z"/>
<path fill="#30D0F0" d="M473.4,39.9c0.8-2.5,1.5-5.4,2.1-8c-0.3-0.7-0.6-1.5-0.4-2.3c0.9-4.2,1.6-8.4,2.1-12.7c0.1-0.5,0.3-1,0.6-1.4
		c0.3,0.7,0.9,1.2,1.1,1.9c2,6.9,4.2,13.7,5.1,20.9c0.5,4.6-0.8,8.9-1.4,13.5c-0.3,2.7-0.7,5.2-0.1,8.3c0,0.1,0.3,0.7,1.2,1.8
		c1,1.1,3,3.6,4.7,5.8c1.7,2.2,5.3,5.5,5.3,9.2c0.2,16.1-2.4,30.9-8.1,46.1c-1.3,3.4-4.5,6.1-6.5,9.1c1.5-4.2,3.2-8.4,4.8-12.6
		c-0.1,0.3,0.4,1.1,0.6,1c1-0.4,1.5-1.3,1.9-2.2c1.2-3.2,3.4-6.3,4-9.7c2-11.6,2.2-22.4-0.2-34c-0.7-3.5-4.5-5.5-6-8.6
		c-2.8-5.6-3.7-10.4-3.3-16.8c0.3-4.1,1.2-8.5,0.7-12.8c-0.5-3.5-1.6-7.4-2.5-10.9c-1,3.5-1.6,7.3-2.6,10.7
		c-1.2,4.3-2.8,8.3-4.3,12.3c-0.3,0.7-0.7,1.2-1.3,1.5c-0.5,0.4-0.8,0.5-0.9-0.3c-0.1-0.8,0.1-1.7,0.4-2.5
		C471.4,44.7,472.5,42.4,473.4,39.9z"/>
<path fill="#B0E0F0" d="M477.8,15.5c-1.4-1.8-13.5,1.3-16.3,2.9c-1,0-1.8,0.9-2.7,1.2c0.6,1.2,1,2.8,1.7,3.9c2.6,3.8,5.4,7.3,9.3,9.6
		c2.5,1.5,3.7-0.1,5.9-1.1c0.9-5.5,1.6-10.5,2.2-16.1V15.5z M482.1,59.1c-0.6-2-0.6-4-0.4-6c0.8-9.8,0.7-19.2-0.8-28.9c-0.4-2.3-1.4-4.6-1.9-6.8c0.9,1.6,1.9,3.3,2.3,5.1
		c1.6,8.1,2.6,16,2.8,24.3c0,1.3-0.6,2.5-0.9,3.8C482.6,53.4,482.3,56.2,482.1,59.1z M494.3,76.6c-2.9-4.3-6-8.3-9.3-12.3c-1.2-1.5-2.1-3.2-2.9-5c3.5,4.2,7.1,8.3,10.4,12.7
		C493.5,73.3,493.7,75,494.3,76.6z"/>
<path fill="#0080F0" d="M173.8,260.6c-3.4,0.7-7,1.4-10.4,1.9c-1.4,0.2-2.9,0.2-4.2,0c-2.3-0.4-4.8-0.6-6.8-1.7c-2-1.1-1.9-2-1.8-4.1
		c0.1-2.1,0.2-4.3,0.1-6.7c-0.3-4.6-0.3-9.2-0.8-13.9c-0.3-2.5-1.3-5-2.2-7.6c-0.9-2.6-2.3-5.9-3.3-8.5c-0.4-1.2,0-1.8,0.8-2.6
		c1.5-1.4,3.1-2.5,4.4-3.9c9.8-5.2,19.4-10.5,28.8-16.3c2-1.2,3.7-2.7,5.6-4.1c0.5-0.3,1.1-0.5,1.7-0.9c0.6-0.4,1.4-1.6,2.2-0.8
		c0.8,0.9,0.6,2,0.3,3.1c-3.7,13.2-8.8,25.6-15.3,37.7c0.1,0.6,0.4,1.3,1.2,1c8.2-3.5,16.7-6,23.9-11.5c6.3-4.8,10.2-11.4,14.4-17.9
		c1.7-2.6,2.7-5.9,4.1-8.7c0.6-1.2,0.8-2.7,1.3-4c0.2-0.4,0.6-0.9,1.1-1c-3.6,18.5-6.4,35.6-17.3,51.6c-6.1,9-17.3,12.9-26.3,18.6
		C175.1,260.2,174.4,260.5,173.8,260.6z"/>
<path fill="#00D0C0" d="M280.1,378.3c-2.4,7.9-5,16.1-6.9,24.1c-1.3,5.3-2.3,10.7-2.8,15.9c-0.8,7.9-0.7,15.3-1,23.1
		c-1.3-0.7-2-1.8-2.8-3c-0.7-1.2-1.4-2.2-2.8-2.6c-5-1.2-10.5-1.7-15.4-2.6c-2.3-0.4-3.6-2.1-5.4-2.9c-2.7-1.3-3.3-0.9-5.4,1.2
		c-0.8,0.8-1.7,2.7-2.7,3.8c-0.4,0.5-1.4,1.6-1.6,0c-0.2-1.6,0.2-3.3,0.7-5.1c0.9-3.2,1.6-6.7,2.5-10c0.5-2,1.3-4,2-6.1
		c1.9-5.6,3.8-11.3,5.9-16.8c0.4-1.1,1.1-2.1,1.6-3.1c2.8-5.8,5.5-11.6,8.2-17.3c0.3-0.6,0.9-1.1,1.2-1.7c2.4-4.2,4.8-8.5,7.1-12.6
		c0.5-0.8,1.1-1.6,1.6-2.1c1.1-1.1,2-1.2,2.9,0s1.1,2.6,2,3.7c1.5,1.9,2.6,4.1,3.3,6.4c0.4,1.2,1.3,2.1,2.2,2.6
		c0.9,0.5,1.9,0.3,2.6,0.7C279.3,375.1,279.7,376.3,280.1,378.3z"/>
<path fill="#00B0C0" d="M275.5,336.2c5.4-8.1,10.9-16.2,16.9-24c3.9-5,8.2-9.6,12.4-14.3c0.4-0.4,0.9-0.6,1.4-1
		c5.6-5.2,11.3-10.3,17.2-15.3c0.9-0.8,1.9-1.2,3.1-1.1c0.2,0-0.2,0.5-0.3,0.7c-0.6,2-0.5,3,1.4,4.2c1.9,1.2,3.2,2.6,3.6,5
		c0,0.1,0,0.3,0,0.4c2,2.9,4,5.5,6.2,8.2c0.4,0.4,0.8,1.2,0.6,1.8c-0.2,0.7-0.5,1.2-1,1.8c-11.6,11.4-23,23.2-33.8,35.4
		c-1,1.1-1.7,2.4-2.5,3.4c-0.8,1-1.5,1.5-2.5,2.2c0.1-1.3,0.4-2.4,0.8-3.6c-1.3-0.6-1.7-1.4-1.7-2.8c0-0.2,0.2-0.6,0-0.8
		c-1.8-2.3-3.3-4.6-5.4-6.6c-1.2-1.1-2.3-2.6-3.8-3.3c-2.2-1-3.1-0.8-4.9,1.3c-1.7,2.1-3.8,5.2-5.6,7.6c-0.6,0.8-1.3,1.5-2.3,1.9
		C275.4,336.9,275.3,336.5,275.5,336.2z"/>
<path fill="#0070F0" d="M271.6,277.6c-0.5,5.3-0.5,10.8-0.8,16.1c-0.1,1.6-0.2,3.3-0.6,4.8c-0.4,1.5-1.2,3.1-2.7,3.1
		c-7.2,0.4-12.9-0.9-19.1-4.7c-1.5-0.9-0.6-2.9-0.6-4.4c0-1.5,0.7-2.9-1-4c-1.7-1.1-3.3-1.9-5.4-1c-5.8,2.6-11.3,6.2-16.8,9.6
		c-0.5,0.3-1.1,0.7-1.7,1.1c-0.6,0.4-1.5,1.2-2.3,0.5s-1.1-2-1-3.1c0.3-2.9,0-5.9,0-8.7c0-2.8,0.6-4.4,2.7-6.2
		c2.1-1.8,4.9-2.6,7.3-4c4.3-2.4,9-4.2,13.1-6.9c7.9-5.2,15-11.1,22.2-17.3c0.3-0.2,0.3-0.7,0.5-1c3.6-4.5,7.2-9,10.8-13.6
		c0.3,0.8,0.4,1.7,0.3,2.5c-0.3,3.8-1,7.5-1.5,11.2c-1,7.5-1.9,15-2.6,22.6C272.4,275.6,271.7,276.5,271.6,277.6z"/>
<path fill="#00C0C0" d="M275.3,337.3c2-2.8,4.2-5.7,6.2-8.4c0.6-0.8,1.2-1.8,1.7-2.4c1.7-1.8,3.1-2.4,5.2-1.1c2.1,1.4,4,3.2,5.7,5
		c1.7,1.8,2.7,3.7,4.2,5.7c0.2,0.3-0.4,1.2-0.4,1.7c0,0.6,0.6,1.2,1.3,1.1c0.8,0,0.9,0.4,0.5,1.3s-1,2-1.3,3c-0.3,1-0.5,1.9-1,2.9
		c-5.3,9.5-10.3,19-15.1,28.8c-0.4,0.9-1,1.9-1.6,2.7c-0.2,0.2-0.4,0.4-0.6,0.6c-0.8-1.8-2-3-3.8-3.6c-1.8-0.7-3.2-1.5-4.6-2.6
		c-0.2-0.1-0.2-0.3-0.3-0.5c-0.7-2.9-1.9-5.1-3.9-7.2c-0.8-0.8-0.7-1.7-0.7-2.6s0.5-1.5-0.5-1.7c-1-0.2-1.3,0.4-2,1.2
		c-0.6,0.8-1.3,1.9-1.9,3c-2.1,3.6-4.5,7.4-6.8,10.9c2.2-4.8,4.4-9.6,6.9-14.3c3.8-7.4,7.7-14.7,11.7-22
		C274.5,338.4,274.9,337.8,275.3,337.3z"/>
<path fill="#002090" d="M313.3,129.7c-2.2,2.9-4.5,5.6-7,8.2c-0.4,0.4-0.6,1-1.1,1.2c-5.7,3.1-11.4,6.4-17.6,8.7
		c-1.6,0.6-2.5-0.6-3.4-1.7c-3.2-3.6-6.5-7.3-9.7-11c-1-1.1-1.2-2.4-0.9-3.8c4.3-0.4,8.6-0.6,12.9-0.7c8.4-0.1,16.7-0.5,25.1-1
		C312.2,129.5,312.7,129.6,313.3,129.7z"/>
<path fill="#00E0F0" d="M247.1,193.6c-1.2-4.9-3-9.7-3.4-14.8c-0.6-7.2-0.7-14.4,0.4-21.5c0.4-2.8,1.6-4.3,4.7-3.8
		c4.7,0.6,8.5,3.6,11.7,7.1c-1.4,2.4-4,4-5.2,6.5c-3.5,7-5.4,14.3-7,21.9C247.9,190.6,247.7,192.1,247.1,193.6z M486.8,118.9c0,0.5-0.2,0.9-0.4,1.5c-0.3,0.6-0.8,2.2-2,1.7c-1.1-0.5-0.5-1.9-0.5-2.8
		c0.4-6.4,2.9-14.2,0.5-20c-5.1-12.8-13.2-18-25.1-23.5c-2.4-1.1-5.8,0-8.3-0.3c2.6,2.1,6.9,2.9,8.7,5.8c5.7,8.9,8.8,17.2,8.8,27.9
		c0,6.1-3.9,11.6-5.5,17.3c-14.5,17.8-29.5,35-45.3,51.5c-2,2.1-5.1,3.5-6.6,5.8c-2.7,4.2-4.5,7.2-0.3,11.1
		c3.1,2.9,6.6,3.3,10.9,0.7c6.9-4.2,14.5-9.7,21.2-14.7c2.4-1.8,5.4-3.8,7.3-6.1c2.6-3.2,3-6.6,4.1-10.3c0.5,0.2,1.1,0.7,1,1.4
		c-1,4.1-1.8,7.7-4.7,11c-2.9,3.3-6.9,5.6-10.1,8.6c-2.5,2.4-5.5,4.4-7.5,7.3c-1.3,1.8-1,3.3,0.8,4.8c3.4,2.9,7.6,5.8,11.3,8.5
		c2.1,1.6,3.7,4.2,5.5,5.6c3.7,2.9,6,3.5,10.6,2.7c1.9-0.3,3.9-2.2,5.7-3.1c0.9-0.4,1.9-0.7,2.8-0.2c-8.3,5.3-16.5,10.4-25.2,15.1
		c-2.5,1.4-5.3,2.6-8,3.5c-2.8,0.9-6.5,2.1-9.2,2.4c-5.4,0.6-8-0.3-12.3-3.5c-1.2-1-1.7-3.4-2-5.1c-0.1-0.4-0.4-1-0.8-1.3
		c-3-2.6-5.7-5.4-8.8-8.1c-2-1.8-4.1-3.1-6.4-4.8c-2.3-1.7-4.4-3.9-6.9-5.8c-3.3-2.5-6.9-4.6-10.9-6.7c-2-1-4.4-2.5-6.6-3.8
		s-4.9-2.3-7.4-3.3c-1.8-0.7-3.7-1.8-5.5-2.8c-1.8-0.9-3.7-1.6-5.5-2.3c-4.1-1.6-8.2-3.4-12.1-5.3c-0.6-0.3-1.3-0.7-1.8-0.7
		c-3.6-0.5-8.4-1.2-11.4-2.2c-3-1-4-1.8-2.1-4.3c8.6-11.2,18.7-21.4,28.3-31.8c0.4-0.5,1.1-0.7,1.5-1.1c0.4,1.4-0.9,2.8-1.1,4
		c-0.5,3-0.7,3.6,2.3,5.1c3,1.5,7.2,2.9,10.7,4c4.3,1.4,9.1,3.2,13,5.1c3.9,1.9,7.4,4.1,11,5.9c3.6,1.8,6.8,2.5,10.4,3.6
		c1.1,0.3,1.8,0.6,2.6,1.2c0.8,0.7,1.9,1.3,2.9,1.6c0.9,0.2,1.3,0.7,1.8,1.3c0.5,0.6,0.7,1.8,1.4,2c3,0.9,4.2,2.6,7.1,0
		c11.4-10,22.4-21,32.3-32.9c5.1-6.1,9-13.3,12.9-20.3c1.7-3,2.6-6.5,3.5-9.8c0.6-2.5,0.1-4.9-0.4-7.2c-0.7-3.5-1.2-7.4-1.9-10.7
		c-0.7-3.3-2.1-5.2-4.4-7.4c-1.5-1.4-3.2-2.9-5.1-3.7c-4.9-2.2-8.7-4.2-14.3-2.7c-6.5,1.8-12.4,5.2-18.2,8.8
		c-9.4,5.9-18.5,12.8-27.5,19.4c-2.3,1.7-4.5,3.8-6.8,5.5c-0.9,0.6-1.9,0.9-3,1c3-3.3,6.6-6.4,9.5-9.7c1.9-2.2,2.2-3.7,1.9-6.5
		c-0.2-2.1-0.9-4.3-1.3-6.5c-0.6-3.1-2-5.6-2.5-8.9c-0.5-3.4-1.5-6.7-1.1-10.6c0.3-3.9,0-7.4,3.5-10.7c3.5-3.3,8.3-6.6,12.6-9.6
		c5.1-3.6,10.8-7.3,16.1-10.9c1.3-0.9,2.7-1.8,4.1-2.6c0.6-0.4,1.3-0.7,2-0.3c0.7,0.4,0.7,1.1,0.7,1.9c0,1.9-0.5,4,0,5.8
		c2.1,7.1,5.4,13,10.2,18.6c1.1,1.3,3.1,2.3,4.6,2.1c8.9-1,14.8-4.2,21.3-10.1c1.3-1.2,1.9-3.3,3-4.6c0.1-0.2,0.5-0.1,0.5,0.1
		c0.3,1.1,0.4,2.3-0.2,3.3c-2.7,4.5-5.7,8.7-9.1,12.7c-0.7,0.9-1.7,1-2.7,1.4c-1,0.3-2,0.4-2.9,0.8c-0.9,0.3-1.8,1-2.1,1.8
		c-0.4,0.8,0.2,1.4,0.9,1.4c1.4,0,2.1-0.4,3-1.4c1-1,2.1-2.4,3.2-3.2c1.1-0.8,2.2-1.3,3.4-1.8c2.1-0.9,3.8-1.9,5.5-3.6
		c0.5-0.4,1.1-1,1.8-0.6c0.7,0.4,1.3,0.7,1.5,1.6c0.2,0.9,0,2-0.6,2.9c-1.1,1.8-2.5,4-3.2,5.8c-0.7,1.8-0.4,3.3,1.3,3.9
		c3.1,1.1,5.4,0.2,8.2-1.3c1.3-0.7,2.9-2.1,4.1-2.8c1.2-0.7,1.2-1.1,1.4-2.2c0.2-1.1,0.2-1.9,0.6-2.9c2.4,2.4,4.6,5,6.5,7.8
		c-0.7,0.4-1.4,0.6-2.1,0.8c-0.7,0.3-1.5,0.6-2,1.2c-2.2,2.9-3.2,7.4-2.7,10.6c1.3,8.6,2.6,16.2,2.5,24.7
		C487,113.8,486.7,116.2,486.8,118.9z"/>
<path fill="#00A0D0" d="M254.8,165.9c1.8-1.8,3.8-3.6,5.8-5.2c0.2-0.2,0.7-0.2,0.8-0.4c1.6-2.9,2.4-4.6-0.4-7.1
		c-2.8-2.5-7.1-4-10.5-5.9c-1.6-0.9-2.1-1.8-1.3-3.5c0.8-1.7,2.5-3.2,3.8-4.7c7.1,4.1,13.9,8.5,20.4,13.3c0.4,0.3,0.6,0.8,0.9,1
		s0.3,0.4,0.3,0.5c-0.7,2.5-0.9,4.6-0.5,7c-3.2,1.9-6.4,3.9-9.6,5.9C261.3,166.6,258,166.3,254.8,165.9z"/>
<path fill="#0050A0" d="M273.6,131.2c1.1,2.4,2.5,4.4,4.3,6.3c2.4,2.7,4.7,5.5,7.1,8.3c0.7,0.9,1.6,1.3,2.6,1.9
		c-0.5,1.2-1.6,2.1-2.7,2.6c-1.1,0.5-2.2,1.1-3.4,1c-2-0.3-3.3-1.4-4.8-2.7c-4.7-4-9.5-7.4-14.9-10.4c-1.4-0.8-2.3-1.8-2.3-3.4
		C264.2,133.2,268.8,132.1,273.6,131.2z"/>
<path fill="#00C0D0" d="M281.3,150.9c2.2-0.9,4.3-2.1,6.5-3.2c6.1-3.2,12.3-6.6,18.5-9.9c-0.8,1.6-1.4,3.4-2.9,4.6
		c-8.3,6.6-17,12.5-26.2,17.8c-0.9,0.5-2,0.5-3,0.9c-0.9-2.8-1.5-4.5,0.8-6.9C276.4,152.5,279.1,151.8,281.3,150.9z"/>
<path fill="#0070B0" d="M281.4,151c-2.3,1.1-4.6,2.2-6.9,3.2c-2.3-1.6-4.4-3.6-6.7-5.3c-3.3-2.4-6.9-4.3-10.5-6.3
		c-1.7-0.9-3-2.1-4.3-3.4c2.1-1.6,4.3-3.1,6.6-4.4c0.8,1.6,2.2,2.4,3.7,3.2c4.8,2.6,9,5.5,13.1,9.1C278,148.5,279.5,149.8,281.4,151
		z"/>
<path fill="#0090E0" d="M254.8,165.9c3.3-0.1,6.5,0.3,9.7,0.9c-2.9,3.2-6.5,5.7-8.8,9.4c-3.3,5.2-5,11-7.2,16.6
		c-0.4,1-0.5,0.7-1.3,0.8c0.7-6.2,1.1-12.3,2.7-18.3C250.7,171.9,253,169,254.8,165.9z M435.9,248.8c9-3.9,18.1-7.7,27.1-11.4c4.3-1.8,8.5-3.6,12.8-5.4c-0.7,1-1.6,1.9-2.6,2.6
		c-6.9,5.7-14.4,10.9-20.7,17.3c-8.4,8.6-15.6,18.3-23.3,27.4c-2.1,2.4-3.8,5.1-6.3,6.8c-2.5,1.7-4.6,1.5-6.1-1.1
		c-1.9-3.3-1.8-6.9-1.9-10.7c0-1.5,0.1-3.1,0.4-4.8c0.4-1.7,0.9-3.3,2.3-4.6c4.4-4,9.3-7.9,14-11.7
		C433.4,251.9,434.7,250.4,435.9,248.8z"/>
<path fill="#00F0FF" d="M385.5,112.9c4.3-3.5,8.6-6.8,13-10.1c9.2-6.7,18.5-13.5,28.3-19.4c5.3-3.2,10.8-5.9,16.8-6.9
		c4.9-0.8,8.4,1.6,12.6,3.8c1.6,0.8,3,2.2,4.4,3.3c2.6,2.1,4.4,4.7,5,7.9c0.6,3.2,1.2,6.6,1.5,9.6c0.5,4.4,1.4,8.6-0.6,12.6
		c-7.9,15.3-17.6,29-28.1,42.6c-3.1,4-6.8,7.3-10.5,10.7c-3.7,3.3-7.6,6.2-11.8,8.8c-1.4,0.9-2.5,0.3-3.7-0.8
		c-1.2-1.1-2.4-2.8-3.2-4.4c-0.1-0.3-0.7-0.5-1-0.4c-1.2,0.7-2.1,0.1-2.8-0.7c-1.6-1.5-3.3-1.7-5.2-2.2c-2.7-0.8-5.2-1.9-7.7-3.2
		c-1.5-0.7-2.9-1.4-4.4-2.2c-5-2.6-10-5.4-15.1-7.9c-1.5-0.7-3.2-0.5-4.7-1c-4.6-1.6-9.6-3.4-14-5.2c-1.7-0.7-1.6-1.2-1.1-2.6
		c0.9-2.2,2.6-4.1,3.6-6.3c4-3.8,7.8-7.7,11.9-11.3C374.2,122.7,379.7,117.6,385.5,112.9z M62.8,374.8c6.4-8.9,12.4-17.9,20.7-25.3c8.9-7.9,19.5-13.6,29.4-20.3c2,0.2,3.7,0.1,5.5,1
		c0.8,0.4,1.2,1.3,1.3,2.2c0.5,3.9,1.2,7.9,1.8,11.7c0.1,1-0.2,1.9-0.1,2.8c0.1,0.9,0.3,1.8,0.1,2.7c-0.1,0.8-0.5,1.6-0.7,2.4
		c-1.3,4.9-2.2,9.8-2.6,14.9c0,0.6-0.2,1.2-0.6,1.4c-1.1,0.5-1.4-0.3-1.7-1.1c-0.6-1.8-1.2-3.6-2-5.2c-0.4-0.9-0.4-1.9-0.7-2.6
		c-0.7-1.8-0.8-2.7-2.9-1.8c-3.1,1.3-6.2,3.1-8.9,5.4c-4.6,3.8-9.6,7.6-13.5,12.2c-7,8.4-12.2,17.7-17.4,27.1
		c-0.5,1-0.8,2.1-1.9,2.3c-2.4,0.5-4.8,0.5-6.5-1.4c-2.8-3.2-3.6-6.4-3.7-10.5c-0.1-3.5,1-7.2,1.1-10.8
		C60.8,379.6,61.3,376.9,62.8,374.8z M484.6,66.1c0.2,0.8,0.4,1.8,0.3,2.6c-0.1,1.8-0.7,2.6-2.3,3.3c-1,0.4-1.9,1.4-2.8,1.9
		c-4,2.2-7.1,3.1-11.5,1.4c-1.4-0.5-1.3-2.1-0.7-3.5s1.4-3.3,2-4.9c0.3-0.6,0.8-0.9,1.4-1.3c0.6-0.5,1.2-1.6,1.1-2.5
		c-0.1-0.9-0.5-1.3-1.3-1.5c-0.8-0.2-1,0.5-1.1,1.1c-0.4,1.2-0.9,1.9-2,2.4c-3.8,1.6-7.2,3.9-10.2,6.7c-1.1,1-2.1,1.1-3.4,1
		c-1.3-0.2-1.7-0.9-2.1-2c-0.4-1.1,0.7-1.8,1.4-2.3c0.6-0.5,1.7-0.7,2.1-1.1c6-5,11.1-9.8,14.4-16.9c3.7-8.1,5.6-16.8,8.1-25.3
		c0.2-0.6,0.1-1.3,0.8-1.3c0.8,0,1.1,0.7,1.2,1.4c1.3,7.5,2.1,14.9,2.1,22.4c0,0.9-0.5,1.8-0.6,2.7c-0.5,5,0.1,9.2,1.9,13.9
		C483.8,64.7,484.5,65.3,484.6,66.1z M487.1,118.5c-1.2,0.2-1.6-0.7-1.5-1.7c0.4-5.2,1.3-10.3,1.6-15.4c0.1-2.2-0.3-4.1-0.9-6.1
		c-0.9-3-2.5-5.8-3.2-8.8c-0.5-2.4,0.1-4.3,1.1-6.4c0.2-0.6,0.7-1.3,1-1.7c1.6-2.7,3.2-3.8,6.3-4.5c1.4,5.1,4,10.1,3.5,15.5
		c-0.8,10-4.2,19.1-7.2,28.5C487.6,118.1,487.3,118.4,487.1,118.5z M117.2,368.8c-0.6,5.2-0.9,10.5-0.7,15.7c0.1,3,1.3,6,1.3,8.9c-0.1,4.7-1.1,9.4-2.2,13.8
		c-2.1,8.2-4.4,16.3-7,24.1c-0.7,2.2-1.8,3.2-3.9,3c-4.1-0.4-6.8-2.9-9.7-5.5c-0.3-0.2-0.4-0.8-0.5-1c-2.5-2-4.8-4-7.3-6.1
		c-2.5-2-5.1-3.7-7.6-5.8c-3.1-2.6-6.2-5.2-9.1-8.1c-0.9-0.9-1.9-1.9-1.3-3.4c2.6-6.8,5.1-13.5,9.5-19.6c5-7,11.2-12.9,17.4-18.9
		c3.2-3,7-5.4,10.6-8c1-0.7,2.4-1.3,3.5-1.9s2.4-1.1,3.6-0.2c1.1,0.9,0.5,2.1,0.2,3.2c-0.1,0.5-0.1,0.9,0.1,1.3
		C115.3,363.3,116.4,366,117.2,368.8z"/>
<path fill="#10C0F0" d="M246.2,394.3c-1.5,4.3-3,8.6-4.5,12.9c-0.8,2.3-1.5,4.7-2.4,7.1c-2.5,1.9-5.7,3.6-8.5,4.5
		c-2.8,0.9-5.7,1.7-8.3,2.3c-6.1,1.4-11.9,2.5-17.9,3.2c-2.3,0.3-4.3,0.3-6.5,0c-3.2-0.4-6.1-1.6-9.1-2.6c-0.5-0.2-1.2-0.3-1.6-0.5
		c-2.6-1.1-4.3-1.9-5-4.8c-0.5-1.7,0.3-3.5,0.8-5.3c1.3-4.9,3.9-9.9,4.5-15c0.5-3.8-0.8-5.7-3.9-7.7c-4.8-3.2-9.9-6.5-14.8-9.8
		c-1.7-1.1-2.7-0.8-3.9,1.1c-1.9,2.8-3.9,6.6-5.6,9.7c-0.9,1.6-1.9,4-3.1,5c-2.5,2.1-3.5,2.2-5.7-0.1c-2.2-2.3-4-5.4-5.8-8.3
		c-2.8-4.5-5.6-9.2-7.9-14c-1-2.2-1.5-4.7-0.8-7c1.1-3.3,3.3-6,5.3-8.7c1.3-1.8,2.9-2.6,4.6-3.9c1,1.1,2,2.1,3.2,2.9
		c0.6,0.4,1.3,0.8,1.7,1.5c1.6,2.5,3.1,5.1,4.5,7.6c0.1,0.2,0.3,0.5,0.4,0.7c1.6,3,3.4,5.5,5.6,7.9c0.7,0.7,1.2,1.6,1.7,2.5
		c1.6-0.4,2.8-0.8,3.9-2.1c3.2-3.7,6.1-8.7,9.6-11.9c2.9-2.6,4.2-2.6,7.5-0.8s7,4.7,9.6,7.4c3.5,3.7,4.1,6.3,2.9,11.4
		c-0.7,3.4-3.9,7.5-4.2,11.1c-0.4,4.8,1.2,7.3,5.6,9.1c3.5,1.4,7.8,1.7,11.5,2.5c2.3,0.5,4.8,0.1,7-0.2c2.2-0.3,4.3-0.6,6.2-0.7
		c1.9-0.1,3.5-0.4,5.1-0.8C234.3,398.9,240.2,396.8,246.2,394.3z"/>
<path fill="#20F0FF" d="M143.1,432.5c0,0.5-0.4,1.1-0.7,1.5c-0.3,0.4-0.3,0.8,0.1,0.9c2.1,0.5,2.6,1.2,2.7,3.3c0,0.9,0.1,1.3,1.2,1.7
		c2.5,0.7,5.5,1.3,8,2.1c0.6,0.2-0.2,0.8,0.5,0.7c1.6-0.3,3.3-1,4.7,0.3c0.5,0.4-0.9,0.6-1.4,0.5c-0.5-0.1-1.8,0.5-2.3,0.8
		c-0.4,0.3-1,0.6-0.4,1c0.6,0.4,1.4,0.1,2-0.2c0.6-0.3,2.6-0.6,3-0.8c1.7-0.6,4.5,0,5.5,0.2c1.8,0.5,2.9,1.2,4,1.7
		c1.1,0.5,1.4,0.8,2.1,1.2c0.8,0.4,0.9,0.3,0.3,0.9c-2.2,1.9-3.8,3.1-6.2,5.4c-1.6,1.5-4.4,4.1-6.4,5.9c-0.3,0.2-1.5,1.1-1.9,1.4
		c-3,1.8-6.3,4.1-8.9,6.1c-1.4,1.1-2.1,2-3.5,2.2c-1.4,0.2-0.4-0.5-0.1-0.9c0.3-0.5,0.7-1.1-0.1-1.2c-0.1,0-0.3,0-0.4-0.1
		c-0.9-1.5-2.4-1.4-3.8-1.1c-1.4,0.3-1.9,0.1-2.4-1.1c-0.4-1.2-0.7-2-1.6-2.9c-0.9-0.9-1.7-1.9-2.2-3.2c-0.5-1.3-1-2.4-1.3-3.8
		c-0.3-1.3-0.4-2.5,0.1-3.9c0.7-2.2,1.9-4.5,2.6-6.8c0.1-0.5,0-1.1-0.7-1c-0.7,0.1-1.4,0.6-2,1.1s-1.4,1-1.8,0.1
		c-0.9-1.8,0.3-3.2,0.7-5c0.4-1.8,0.2-2.3-2.2-1.8c-2.4,0.5-5.5,0.1-7.9,2.2c-2.9,2.6-4.7,5.9-4.9,10.3c-0.2,3.7-0.8,8.2-1.9,12
		c-1.3,4.5-2.4,8.2-1.8,13.1c0.7,4.8,2.8,9.5,4.7,14.2c0.4,1.1,1.2,2.3,1.3,3.6c0.1,1.3,0.2,3.1-1.7,3c-1.9,0-3.3-1.1-4.6-2.7
		c-0.8-1-1.3-2.5-2.5-3.2c-2.3-1.2-5-1.8-7.4-2.6c-1.6-0.5-2.8-0.7-3.9-2c-6.6-7.8-12.5-16.3-18.2-24.7c-0.9-1.3-1.8-2.6-2.5-3.7
		c-2.9-5.3-5.9-10.9-8.3-16.2c-4-8.7-7.1-17-10.4-25.8c-0.3-0.7-0.2-1.4-0.4-2.1c1.2,0.2,1.9,0.7,2.4,1.8c1,2.4,1.5,4.9,2.7,7.3
		c3.8,7.4,7.7,14.6,11.7,21.9c0.5,1,1.3,1.8,2.1,2.6c4.8,4.9,9.4,10.2,13.9,15.5c1.6,2,3.6,4,5.4,5.8c1,1,2,1.6,3.1,1.9
		c1.1,0.3,2.3,0.9,3.2,0.6c3.4-1.1,4.4-1.1,4.6-5.2c0.3-6.7-0.2-15,0.8-21.8c1.7-11.2,4.2-21.8,6.6-32.6c0.5-2.4,1.6-4.2,2.7-6.4
		c1.1,0.6,1.9,1.3,2.4,2.4c1.4,3.2,3,6.3,4.9,9.2c0.6,1,1.1,2.2,1.7,3.2c2.4,4.3,5.1,8.6,8.2,12.3c1.4,1.6,2.6,2.2,4.1,3.6
		C140.9,434.2,142,433.4,143.1,432.5z M116.9,368.9c0.5-0.8,0.3-1.2,0.5-2c1.7,0.8,2.9,0.9,4.1,2.6s2.8,3.5,4,5.4s2,3.6,1.2,6.1
		c-1.2,3.9-3,7.9-4.3,11.8c-0.4,1.2-0.7,2.4-1,3.7c-0.6,2.8-1.3,5.5-2.3,8.3c-1.5,4.3-3,8.3-4.1,12.9c-1.3,6-2.6,11.5-3.6,17.9
		c-1.1,6.4-1.8,13.9-2,20.8c-0.1,3.9,0.6,8.7,0.1,12.6c-0.3,2.8-1.3,3.2-3.8,3.2c-1.6,0-3.1-0.5-4.8-1.1c-1.7-0.6-3.4-1.6-4.8-3.2
		c-2-2.2-4.5-4.9-6.7-7.2c-1.2-1.3-2.1-3.3-3-4.6c-1.5-2.2-3.9-4.1-5.4-5.9c-4.7-5.4-8.2-11-11.7-17c-2-3.5-3.8-6.6-5.5-10.2
		c-1.1-2.3-1.6-4.8-2.5-7.1c-0.4-1.1-1-2.1-1.9-2.9c-0.7-3.5-1.6-6.9-2.1-10.5c-0.3-2.4-0.4-4.9-0.2-7.3c0.1-2.4,0.4-4.5,0.7-6.8
		c0.3-2.3,1.1-4.4,1.6-6.6c0.2,1.7,0.1,3.5,0,5.2c-0.1,1.7-0.6,3.8-0.5,5.4c0.6,4.8,2.2,8.3,5.2,12c0.5,0.7,1.3,0.3,2.1,0.2
		c0.8-0.1,1.6-0.5,2.4,0.2c6.6,5.9,13.1,11.6,20,17.3c2.6,2.1,5.4,4.9,7.8,7.5c1.2,1.3,2.6,3.5,4.5,3.5c3.9-0.2,5.8-0.2,7.3-4.4
		c3.2-8.8,5.7-18.4,8.1-27.8c0.9-3.4,0.4-7.3,0.1-10.9c-0.6-6-1.1-12.3-0.9-18.3C115.6,370.5,116.5,369.7,116.9,368.9z M57.7,388.5c0,2.3-0.2,4.4-0.7,6.6C57.3,392.9,57.5,390.7,57.7,388.5z M125.5,480.5c0.4,0.9,0.7,2,0.6,3s-1.1,0.9-1.6,1c-0.6,0.1-1.3-0.3-1.4-0.6c-0.6-1,0-1.2,0.6-1.8
		C124.3,481.5,124.9,481,125.5,480.5z M123.9,475.5c0.2,0.7,0.2,1.5-0.7,1.5c-0.8,0-1.1-0.8-1.3-1.4c-0.2-0.6-0.2-1.5,0.6-1.5
		S123.7,474.8,123.9,475.5z M151.9,438.1c-0.1,0.5-0.7,0.5-1.1,0.5c-0.4,0.1-1,0.1-0.9-0.5c0.1-0.5,0.8-0.6,1.2-0.6
		C151.4,437.5,152,437.6,151.9,438.1z"/>
<path fill="#10E0F0" d="M120.6,395.9c1.7-5.4,4-10.7,5.5-16.1c0.6-1.9-0.1-2.9-1.4-4.4c-1.3-1.5-3-3.7-4-5.3c-1-1.6-2.1-1.9-3.4-3.1
		c0.1-1.5-0.2-3.1-0.3-4.6c-0.2-1.5-0.1-2.6,0.4-4c1.3-3.7,2.7-7.4,3.8-11.2c4.3-1.2,8.6-2.9,12.7-4.7c1.9-0.9,3.7-2,5.6-2.4
		c1.9-0.3,3.1,0.3,3.5,2.1c1,5.1,0.6,9.5-1.4,14.4c-1.1,2.8-3.7,5.5-5,8.2c-1.4,2.7-2.8,5.5-4.1,8.1c-1.3,2.6-1.9,5.3-2.9,7.8
		c-0.9,2.5-2.2,4.7-3.5,6.9c-1.2,2.2-2.2,4.2-3.3,6.3C122.3,394.9,121.6,395.3,120.6,395.9z"/>
<path fill="#10D0F0" d="M142,356.5c0.1-0.8,0.5-1.7,0.6-2.5c0.5-4.3,0.4-8.3-0.5-12.5c-0.3-1.2-1.3-1.3-2.2-1.8
		c3.5-1.4,7-2.8,10.7-3.8c0.7-0.2,1.4-0.2,1.9,0.4c0.5,0.6,0.1,1.5-0.1,2.1c-0.4,1.8,0.1,2.4,1.5,3.3c-0.6,1.2-1.1,2.3-1.4,3.6
		c-2.4,2.3-4.6,4.7-6.8,7.2C144.6,353.9,143.3,355.2,142,356.5z M234.8,430.5c0-0.6,0.4-1.4,0.2-2c-0.5-1.3-0.8-1.9-2.4-1.3c-4.3,1.4-9.2,3.5-13.5,4.8
		c-4.3,1.3-8.5,2.1-12.6,3.1c-1.7,0.4-3.3,0.8-4.6,1.1c-2.1,0.5-4,0.4-5.8,0.2c-1.8-0.2-3.1-0.4-4.6-0.6c-1.6-0.2-2.8-0.9-4.1-1.5
		c-1.3-0.6-2.9-0.6-4-0.6c-1.2,0.1-2,0.4-2.1-0.9c-0.5-5.5,0.4-10.8,1.4-16.2c0.4,0.7,0.6,1.6,0.9,2.4c0.3,0.8,0.7,1.2,1.5,1.3
		c2.4,0.3,4.7,1.1,6.9,1.7c4.1,1,7.7,1.5,11.9,1.6c2.5,0,4.9,0,7.7-0.6c4.1-0.9,8.7-2.2,12.9-3.4c1.3-0.4,2.8-0.7,4.2-1.1
		c3.6-1,7.3-2.4,10.7-4.1c-1.3,4.6-2.6,9.3-3.7,14C235.5,429.1,235.2,429.8,234.8,430.5z M183.9,411.1c-0.4-0.9,0.2-1.8-0.3-2.6c-1.3-2.5-1.6-3.1-4.5-4.5c-2.1-1-5.1-2.9-7.1-4.9c-2-2-4.8-4-7.3-5.6
		c-1-0.7-1.9-1.9-2.5-2.8c-1.1-1.5-1.9-1.5-3.5-1.4c2-3.6,4-7.8,6.4-11c1.7-2.2,2.7-1.6,4.7-0.4c0.9,0.5,1.4,1.8,2.4,2.4
		c2.9,1.9,5.9,3.9,8.7,5.9c0.8,0.5,2,0.8,2.6,1.2c3.7,2.7,5.6,5.1,4.9,9.9C187.6,402.1,185.1,406.5,183.9,411.1z M155.6,395c-2,4.7-3.8,9.6-5.8,14.2c-0.6,1.5-1.4,2.5-2.9,2.8c-1.5,0.3-1.5-1.4-1.7-2.4
		c-0.4-1.6-1.4-2.9-2.3-4.1c-1-1.1-1.7-2-2.4-3.2c-1.7-3-3.4-5.9-5.3-8.7c-0.6-0.9-1.1-1.6-1.5-2.6c-0.9-2-1.9-3.7-3-5.7
		c-0.7-1.3-1.1-3.1-1.7-4.5c2-5.6,4.5-10.8,7.4-15.9c0.7,3,1,6.1,2.4,8.8c2.6,5.2,5.6,10.2,8.6,15.1c1.6,2.6,3.3,5.1,5.4,7.1
		C154.1,397.2,154.6,395.6,155.6,395z"/>
<path fill="#20E0FF" d="M120.6,395.8c1.6-2.9,3.2-5.9,4.9-8.9c1.2-2.1,2.4-4.1,3.5-6.2c0.4,0,0.9,0.2,1.1,0.5c1.4,2.7,2.7,5.5,4,8.3
		c0.6,1.3,1.3,2.6,2,3.7c1.8,2.9,3.6,5.8,5.2,8.7c0.4,0.8,1,1.5,1.5,2.2c1.4,1.7,2.4,3.3,3.3,5.3c0.3,0.6,0.4,1.2,1.1,1.2
		c0.7,0,1.1-0.5,1.4-1.1c1.1-2.3,2.1-5.1,3.1-7.4c1-2.3,2.4-4.8,3.4-6.7c1-1.9,2.1-3.8,3.1-5.1c1.6-2,2.4-1.6,4.1-0.5
		c1.7,1.1,2.7,2.7,4.3,3.7c1.7,1,3.1,2.3,4.5,3.5c2.7,2.3,5.6,4.4,8.5,6.4c0.2,0.2,0.5,0.2,0.7,0.3c2.4,1.7,3.4,3.2,3.6,6.3
		c0,0.3-0.2,0.8-0.3,1.2c-0.4,1.8-0.8,3.5-1.1,5.4c-0.4,3-0.8,5.9-1.2,8.9c-0.1,0.9-0.3,1.8-0.1,2.9c0.2,1.1,0.2,2.5,1,3.4
		c0.9,0.9,2.1,0.7,3.3,0.7c0.3,0,0.6,0.2,0.9,0.2c2.7,0.6,4.5,2.2,7.4,2.1c7.5-0.1,14.4-1.2,21.9-2.9c4.2-0.9,9.3-2.9,13.5-4.4
		c0.8-0.3,1.7-0.9,2.4-1c2.2-0.1,2.9,0.3,3.4,2.5c0.1,0.5-0.3,1.1-0.5,1.8c-0.4,1.9-0.8,3.8-1.3,5.9c-0.5,2.1-1,4.6-1.4,6.8
		c-7,3.2-14.7,6.3-21.8,8.8c-5.2,1.8-12,2.6-16.5,1c-4.5-1.5-4.7-4.6-8.3-6.2c-2.5-1.1-5.1-1.6-7.4-2c-1-0.2-1.7-0.1-1.7-0.8
		c-0.3-3.5,1.1-6.2,1.5-9.7c0.1-1.1,0.3-2.8-0.8-3.9c-1.1-1.1-2.6-2.1-4.5-2.5c-1.9-0.4-4.2-1-6-1.9c-3.5-1.8-6.8-3.8-10.4-5.5
		c-1.2-0.6-2.1-2.2-3.4-2.3c-3.1-0.4-4.4,0-5.7,3.3c-1.3,3.2-2.3,7.4-4,10.7c-0.5,0.9-1.4,2-2.1,2.6c-0.8,0.6-1,1.1-1.8,0.4
		c-2-1.8-3.7-3.1-5.6-5.4c-2.5-3-4.6-6.9-6.4-10.6c-0.6-1.2-1.4-2.6-2.2-3.9c-1.6-2.5-3-5.1-4-7.9c-0.4-1-0.8-2-1.4-2.9
		C119.6,401.8,120.1,398.8,120.6,395.8z"/>
</svg>